<svg xmlns="http://www.w3.org/2000/svg" width="21.766" height="26" viewBox="0 0 21.766 26">
  <path id="apple" d="M21.765,18.984a15.1,15.1,0,0,1-1.922,3.906q-2.016,3.062-4.015,3.062a7.221,7.221,0,0,1-2.188-.5,6.911,6.911,0,0,0-2.359-.5,6.013,6.013,0,0,0-2.219.516A5.644,5.644,0,0,1,7,26q-2.375,0-4.7-4.046A16.025,16.025,0,0,1,0,14.093,9.268,9.268,0,0,1,1.766,8.25,5.422,5.422,0,0,1,6.2,6a10.393,10.393,0,0,1,2.765.469,10.062,10.062,0,0,0,2.156.469,7.815,7.815,0,0,0,2.234-.532,8.823,8.823,0,0,1,2.7-.532A5.712,5.712,0,0,1,19.39,6.89a8.068,8.068,0,0,1,1.625,1.562A10.127,10.127,0,0,0,19.234,10.3a5.565,5.565,0,0,0-1.015,3.234A5.95,5.95,0,0,0,19.3,17.014a4.752,4.752,0,0,0,2.468,1.969ZM15.89.656a5.958,5.958,0,0,1-.453,2.125,6.411,6.411,0,0,1-1.453,2.156A4.43,4.43,0,0,1,12.3,6.063a8.728,8.728,0,0,1-1.625.266A7.122,7.122,0,0,1,11.89,2.313,6.225,6.225,0,0,1,15.8,0a1.449,1.449,0,0,1,.039.172,1.448,1.448,0,0,0,.039.172q0,.063.008.156t.008.156Z"/>
</svg>
