<svg xmlns="http://www.w3.org/2000/svg" width="305.982" height="190.996" viewBox="0 0 305.982 190.996">
    <g id="Group_3099" data-name="Group 3099" transform="translate(-797.793 -605.741)">
        <path id="Icon_awesome-id-card" data-name="Icon awesome-id-card" d="M183.333,2.25H16.667A16.671,16.671,0,0,0,0,18.917v5.556H200V18.917A16.671,16.671,0,0,0,183.333,2.25ZM0,141.139a16.671,16.671,0,0,0,16.667,16.667H183.333A16.671,16.671,0,0,0,200,141.139V35.583H0ZM122.222,60.583A2.786,2.786,0,0,1,125,57.806h50a2.786,2.786,0,0,1,2.778,2.778v5.556A2.786,2.786,0,0,1,175,68.917H125a2.786,2.786,0,0,1-2.778-2.778Zm0,22.222A2.786,2.786,0,0,1,125,80.028h50a2.786,2.786,0,0,1,2.778,2.778v5.556A2.786,2.786,0,0,1,175,91.139H125a2.786,2.786,0,0,1-2.778-2.778Zm0,22.222A2.786,2.786,0,0,1,125,102.25h50a2.786,2.786,0,0,1,2.778,2.778v5.556A2.786,2.786,0,0,1,175,113.361H125a2.786,2.786,0,0,1-2.778-2.778ZM61.111,57.806A22.222,22.222,0,1,1,38.889,80.028,22.243,22.243,0,0,1,61.111,57.806ZM23.3,128.708a22.253,22.253,0,0,1,21.146-15.347h2.847a35.765,35.765,0,0,0,27.639,0h2.847a22.253,22.253,0,0,1,21.146,15.347c1.111,3.438-1.806,6.875-5.417,6.875H28.715C25.1,135.583,22.187,132.111,23.3,128.708Z" transform="translate(860 609.491)" fill="aqua"/>
        <path id="Icon_awesome-stamp" data-name="Icon awesome-stamp" d="M3.786,60.575h53V53h-53ZM49.218,30.287H41.343A3.483,3.483,0,0,1,37.86,26.8V25.685a20.1,20.1,0,0,1,2.539-9.2,11.216,11.216,0,0,0,1.071-7.148,11.36,11.36,0,0,0-22.54,2.016,11.113,11.113,0,0,0,1.028,4.683A25.764,25.764,0,0,1,22.716,26.8V26.8a3.483,3.483,0,0,1-3.483,3.483H11.358A11.358,11.358,0,0,0,0,41.645v3.786a3.786,3.786,0,0,0,3.786,3.786h53a3.786,3.786,0,0,0,3.786-3.786V41.645A11.358,11.358,0,0,0,49.218,30.287Z" transform="translate(797.793 701.114) rotate(-60)" fill="#ff0"/>
        <g id="Group_3098" data-name="Group 3098" transform="translate(-227.39 98)">
            <path id="Icon_weather-stars" data-name="Icon weather-stars" d="M6.444,29.756a4.866,4.866,0,0,0,3.408-1.549,4.854,4.854,0,0,0,1.4-3.47,5.011,5.011,0,0,0,4.791,5.019,5.011,5.011,0,0,0-4.791,5.019,4.77,4.77,0,0,0-1.4-3.47A4.866,4.866,0,0,0,6.444,29.756Zm4.812-14.87a9.492,9.492,0,0,0,6.63-3.036,9.454,9.454,0,0,0,2.726-6.774,9.454,9.454,0,0,0,2.726,6.774,9.585,9.585,0,0,0,6.65,3.036,9.572,9.572,0,0,0-4.73,1.466,9.925,9.925,0,0,0-3.408,3.573,9.712,9.712,0,0,0-1.239,4.812,9.5,9.5,0,0,0-2.726-6.795A9.43,9.43,0,0,0,11.256,14.886Zm6.857,22.243a7.377,7.377,0,0,0,7.043-7.373,7.379,7.379,0,0,0,7.022,7.373A7.379,7.379,0,0,0,25.155,44.5a7.112,7.112,0,0,0-2.045-5.1A7.235,7.235,0,0,0,18.113,37.129ZM32.177,27.34a7.342,7.342,0,0,0,7-7.394,7.377,7.377,0,0,0,7.043,7.373,7.377,7.377,0,0,0-7.043,7.373,7.3,7.3,0,0,0-7-7.352Z" transform="translate(1040.224 517.665)" fill="#ff0"/>
            <path id="Icon_weather-stars-2" data-name="Icon weather-stars" d="M6.444,29.756a4.866,4.866,0,0,0,3.408-1.549,4.854,4.854,0,0,0,1.4-3.47,5.011,5.011,0,0,0,4.791,5.019,5.011,5.011,0,0,0-4.791,5.019,4.77,4.77,0,0,0-1.4-3.47A4.866,4.866,0,0,0,6.444,29.756Zm4.812-14.87a9.492,9.492,0,0,0,6.63-3.036,9.454,9.454,0,0,0,2.726-6.774,9.454,9.454,0,0,0,2.726,6.774,9.585,9.585,0,0,0,6.65,3.036,9.572,9.572,0,0,0-4.73,1.466,9.925,9.925,0,0,0-3.408,3.573,9.712,9.712,0,0,0-1.239,4.812,9.5,9.5,0,0,0-2.726-6.795A9.43,9.43,0,0,0,11.256,14.886Zm6.857,22.243a7.377,7.377,0,0,0,7.043-7.373,7.379,7.379,0,0,0,7.022,7.373A7.379,7.379,0,0,0,25.155,44.5a7.112,7.112,0,0,0-2.045-5.1A7.235,7.235,0,0,0,18.113,37.129ZM32.177,27.34a7.342,7.342,0,0,0,7-7.394,7.377,7.377,0,0,0,7.043,7.373,7.377,7.377,0,0,0-7.043,7.373,7.3,7.3,0,0,0-7-7.352Z" transform="translate(1040.224 517.665)" fill="#ff0"/>
        </g>
        <g id="Group_3100" data-name="Group 3100" transform="translate(1049 742.312)">
            <path id="Icon_weather-stars-3" data-name="Icon weather-stars" d="M46.22,19.822a5.048,5.048,0,0,0-4.812,5.019,5.011,5.011,0,0,0-4.791-5.019A5.011,5.011,0,0,0,41.408,14.8a4.77,4.77,0,0,0,1.4,3.47A4.866,4.866,0,0,0,46.22,19.822Zm-4.812,14.87a9.851,9.851,0,0,0-9.356,9.81,9.454,9.454,0,0,0-2.726-6.774,9.585,9.585,0,0,0-6.65-3.036,9.572,9.572,0,0,0,4.729-1.466,9.924,9.924,0,0,0,3.408-3.573,9.712,9.712,0,0,0,1.239-4.812,9.5,9.5,0,0,0,2.726,6.795A9.429,9.429,0,0,0,41.408,34.692ZM34.552,12.449a7.377,7.377,0,0,0-7.042,7.373,7.112,7.112,0,0,0-2.045-5.1,7.064,7.064,0,0,0-4.977-2.272,7.064,7.064,0,0,0,4.977-2.272,7.112,7.112,0,0,0,2.045-5.1,7.112,7.112,0,0,0,2.045,5.1A7.235,7.235,0,0,0,34.552,12.449ZM20.488,22.238a7.342,7.342,0,0,0-7,7.394,7.112,7.112,0,0,0-2.045-5.1,7.11,7.11,0,0,0-5-2.272,7.11,7.11,0,0,0,5-2.272,7.112,7.112,0,0,0,2.045-5.1,7.3,7.3,0,0,0,7,7.352Z" transform="translate(-6.444 -5.076)" fill="#ff0"/>
            <path id="Icon_weather-stars-4" data-name="Icon weather-stars" d="M46.22,19.822a5.048,5.048,0,0,0-4.812,5.019,5.011,5.011,0,0,0-4.791-5.019A5.011,5.011,0,0,0,41.408,14.8a4.77,4.77,0,0,0,1.4,3.47A4.866,4.866,0,0,0,46.22,19.822Zm-4.812,14.87a9.851,9.851,0,0,0-9.356,9.81,9.454,9.454,0,0,0-2.726-6.774,9.585,9.585,0,0,0-6.65-3.036,9.572,9.572,0,0,0,4.729-1.466,9.924,9.924,0,0,0,3.408-3.573,9.712,9.712,0,0,0,1.239-4.812,9.5,9.5,0,0,0,2.726,6.795A9.429,9.429,0,0,0,41.408,34.692ZM34.552,12.449a7.377,7.377,0,0,0-7.042,7.373,7.112,7.112,0,0,0-2.045-5.1,7.064,7.064,0,0,0-4.977-2.272,7.064,7.064,0,0,0,4.977-2.272,7.112,7.112,0,0,0,2.045-5.1,7.112,7.112,0,0,0,2.045,5.1A7.235,7.235,0,0,0,34.552,12.449ZM20.488,22.238a7.342,7.342,0,0,0-7,7.394,7.112,7.112,0,0,0-2.045-5.1,7.11,7.11,0,0,0-5-2.272,7.11,7.11,0,0,0,5-2.272,7.112,7.112,0,0,0,2.045-5.1,7.3,7.3,0,0,0,7,7.352Z" transform="translate(-6.444 -5.076)" fill="#ff0"/>
        </g>
    </g>
</svg>
