<svg id="_1421344023328" xmlns="http://www.w3.org/2000/svg" width="17.998" height="18" viewBox="0 0 17.998 18">
  <path id="Path_923" data-name="Path 923" d="M17.728,11.178A9,9,0,1,1,11.174.27a9,9,0,0,1,6.554,10.908h0Z" transform="translate(0 -0.001)" fill="#f7931a"/>
  <path id="Path_924" data-name="Path 924" d="M1004.059,717.333c.178-1.2-.732-1.842-1.98-2.271l.4-1.623-.988-.246-.393,1.58c-.26-.064-.525-.125-.791-.186l.4-1.591-.988-.246-.4,1.623c-.215-.05-.426-.1-.629-.148v-.006l-1.361-.339-.264,1.055s.732.168.717.178a.526.526,0,0,1,.461.574l-.461,1.848a.879.879,0,0,1,.1.033l-.105-.025-.645,2.589a.361.361,0,0,1-.453.235c.01.014-.717-.18-.717-.18l-.49,1.131,1.285.319c.238.061.473.123.7.183l-.408,1.642.986.246.4-1.624c.27.072.531.141.787.2l-.4,1.615.986.246.41-1.637c1.684.318,2.949.189,3.482-1.334a1.734,1.734,0,0,0-.906-2.4,1.574,1.574,0,0,0,1.26-1.449ZM1001.8,720.5c-.3,1.227-2.369.563-3.039.4l.543-2.175C999.973,718.887,1002.121,719.218,1001.8,720.5Zm.307-3.182c-.279,1.114-2,.549-2.555.409l.492-1.972c.557.14,2.352.4,2.063,1.563Z" transform="translate(-991.092 -709.615)" fill="#fff"/>
</svg>
