<svg xmlns="http://www.w3.org/2000/svg" width="24" height="15.6" viewBox="0 0 24 15.6">
  <path id="bx-coin" d="M15,9C9.036,9,3,10.855,3,14.4v4.8c0,3.545,6.036,5.4,12,5.4s12-1.855,12-5.4V14.4C27,10.855,20.964,9,15,9ZM5.4,19.2V17.763A11.987,11.987,0,0,0,7.8,18.8v2.257C6.226,20.435,5.4,19.7,5.4,19.2Zm14.4.178v2.366a22.582,22.582,0,0,1-3.6.43v-2.4a26.1,26.1,0,0,0,3.6-.4Zm-6,2.8a22.545,22.545,0,0,1-3.6-.43V19.378a26.533,26.533,0,0,0,3.6.4v2.4Zm8.4-1.121V18.8a11.917,11.917,0,0,0,2.4-1.032V19.2C24.6,19.7,23.776,20.436,22.2,21.053ZM15,17.4c-6.212,0-9.6-1.982-9.6-3s3.388-3,9.6-3,9.6,1.982,9.6,3S21.213,17.4,15,17.4Z" transform="translate(-3 -9)" fill="#fff"/>
</svg>
