<svg id="Page-1" xmlns="http://www.w3.org/2000/svg" width="26.166" height="30" viewBox="0 0 26.166 30">
  <path id="Path_3_" d="M24.652,23.186a1.511,1.511,0,0,0-1.477,1.194l-5.7-.271a1.657,1.657,0,0,0,.033-.326,2.19,2.19,0,0,0-.087-.586L19.5,22a1.536,1.536,0,1,0-.174-.271l-2.009,1.162a2.1,2.1,0,0,0-3.876,1.6l-3.735.9a2.077,2.077,0,0,0-.6-1.357l.673-.934a1.514,1.514,0,1,0-.3-.141l-.619.858a2.135,2.135,0,0,0-1.531-.4l-.641-3.659a2.1,2.1,0,1,0-1.433-3.9L3.633,12.7a2.117,2.117,0,0,0,.836-.771l1.346.358a1.471,1.471,0,0,0-.022.217,1.53,1.53,0,0,0,1.379,1.52A1.519,1.519,0,1,0,5.892,11.97l-1.27-.337a2.063,2.063,0,0,0,.1-1.3L8.465,8.6a2.106,2.106,0,0,0,2.866.4,2.085,2.085,0,0,0,.543-2.834l2.389-2.334a2.092,2.092,0,0,0,.966.326V5.2a1.511,1.511,0,1,0,.326,0V4.164a2.072,2.072,0,0,0,.847-.25L19.018,6.9a2.1,2.1,0,1,0,3.648.554L23.48,7a1.54,1.54,0,1,0-.174-.271l-.771.434a2.092,2.092,0,0,0-3.29-.5L16.683,3.741a2.188,2.188,0,0,0,.6-.738l2.247.369a1.505,1.505,0,0,0,2.964-.5,1.508,1.508,0,0,0-3.007.152L17.4,2.677a2.1,2.1,0,1,0-3.409.966L11.667,5.912A2.1,2.1,0,0,0,10.256,5.2V3.611A1.516,1.516,0,0,0,11.6,2.025,1.494,1.494,0,0,0,10.1.6a1.514,1.514,0,0,0-.163,3.018V5.2A2.1,2.1,0,0,0,8.28,8.333L4.632,10.005a2.082,2.082,0,0,0-.6-.8L5.457,6.64A1.5,1.5,0,0,0,7.346,5.358a1.515,1.515,0,1,0-2.2,1.162l-1.379,2.5a2.1,2.1,0,1,0-.423,3.811l1.639,3.2a2.077,2.077,0,0,0-.8,1.259l-1.194-.347a1.43,1.43,0,0,0,.043-.369A1.514,1.514,0,0,0,.04,16.226,1.5,1.5,0,0,0,1,18a1.516,1.516,0,0,0,1.867-.738l1.27.369v.1A2.062,2.062,0,0,0,5.1,19.483l-.814,1.064a1.478,1.478,0,1,0,.228.239l.879-1.151a2.04,2.04,0,0,0,.847.174.529.529,0,0,0,.13-.011l.651,3.681a2.127,2.127,0,0,0-1.509,1.954,2.1,2.1,0,0,0,3.767,1.325l3.04,1.357a1.787,1.787,0,0,0-.043.337,1.518,1.518,0,1,0,.152-.651L9.463,26.475A1.937,1.937,0,0,0,9.7,25.7l3.865-.945a2.089,2.089,0,0,0,3.138.641l1.444,1.249a1.517,1.517,0,0,0,2.682,1.411,1.518,1.518,0,0,0-2.508-1.7l-1.379-1.183A2.136,2.136,0,0,0,17.4,24.4l5.743.282a1.513,1.513,0,0,0,1.52,1.5,1.5,1.5,0,1,0-.011-3Z" transform="translate(0.004 0.03)" fill="#fff"/>
</svg>
