<svg id="Page-1" xmlns="http://www.w3.org/2000/svg" width="10.466" height="12" viewBox="0 0 10.466 12">
  <path id="Path_3_" d="M9.858,9.256a.6.6,0,0,0-.591.478l-2.28-.109A.663.663,0,0,0,7,9.5a.876.876,0,0,0-.035-.235L7.8,8.783a.614.614,0,1,0-.069-.109l-.8.465a.839.839,0,0,0-1.55.638l-1.494.36A.831.831,0,0,0,3.64,9.6l.269-.373a.605.605,0,1,0-.122-.056l-.248.343a.854.854,0,0,0-.612-.161L2.671,7.884A.838.838,0,1,0,2.1,6.325L1.451,5.061a.847.847,0,0,0,.334-.308l.539.143a.589.589,0,0,0-.009.087.612.612,0,0,0,.552.608.608.608,0,1,0-.512-.821l-.508-.135a.825.825,0,0,0,.039-.521l1.5-.691a.843.843,0,0,0,1.146.161.834.834,0,0,0,.217-1.133L5.7,1.518a.837.837,0,0,0,.387.13V2.06a.6.6,0,1,0,.13,0V1.648a.829.829,0,0,0,.339-.1L7.6,2.742a.84.84,0,1,0,1.459.221l.326-.182a.616.616,0,1,0-.069-.109l-.308.174a.837.837,0,0,0-1.316-.2L6.671,1.478a.875.875,0,0,0,.239-.3l.9.148a.6.6,0,0,0,1.186-.2.6.6,0,0,0-1.2.061l-.834-.139a.84.84,0,1,0-1.364.387l-.929.908A.84.84,0,0,0,4.1,2.06V1.426A.606.606,0,0,0,4.638.792a.6.6,0,0,0-.6-.569.605.605,0,0,0-.065,1.207v.63a.84.84,0,0,0-.664,1.255L1.85,3.984a.833.833,0,0,0-.239-.321L2.18,2.638a.6.6,0,0,0,.756-.512.606.606,0,1,0-.882.465l-.552,1a.84.84,0,1,0-.169,1.524l.656,1.281a.831.831,0,0,0-.321.5L1.19,6.759a.572.572,0,0,0,.017-.148A.605.605,0,0,0,.013,6.473.6.6,0,0,0,.4,7.181a.606.606,0,0,0,.747-.3l.508.148v.039a.825.825,0,0,0,.387.7L1.711,8.2a.591.591,0,1,0,.091.1l.352-.46a.816.816,0,0,0,.339.069.211.211,0,0,0,.052,0l.261,1.472a.851.851,0,0,0-.6.782.84.84,0,0,0,1.507.53l1.216.543a.715.715,0,0,0-.017.135.607.607,0,1,0,.061-.261l-1.186-.53a.775.775,0,0,0,.1-.308l1.546-.378a.836.836,0,0,0,1.255.256l.578.5a.607.607,0,0,0,1.073.565.607.607,0,0,0-1-.682l-.552-.473a.854.854,0,0,0,.182-.308l2.3.113a.605.605,0,0,0,.608.6.6.6,0,1,0,0-1.2Z" transform="translate(0.004 0.03)" fill="#ff473e"/>
</svg>
