<svg xmlns="http://www.w3.org/2000/svg" width="32" height="32" viewBox="0 0 32 32">
  <path id="circletwitter" d="M16,32a15.7,15.7,0,0,1-6.219-1.266,15.656,15.656,0,0,1-8.516-8.516,15.909,15.909,0,0,1,0-12.437A15.656,15.656,0,0,1,9.781,1.266a15.909,15.909,0,0,1,12.437,0,15.656,15.656,0,0,1,8.516,8.516,15.909,15.909,0,0,1,0,12.437,15.656,15.656,0,0,1-8.516,8.516A15.7,15.7,0,0,1,16,32ZM25.406,8a5.777,5.777,0,0,0-.563.344l-.61.406-.578.313L23,9.282A3.682,3.682,0,0,0,20.156,8Q16.5,8,16.5,11.063v1.844A9.885,9.885,0,0,1,8.781,9.22,2.523,2.523,0,0,0,8,11a3.561,3.561,0,0,0,1.532,3.125q-.188,0-.532.031a2.369,2.369,0,0,1-.547,0A1.566,1.566,0,0,1,8,14a3.7,3.7,0,0,0,.765,2.39,3.529,3.529,0,0,0,2.109,1.234A1.076,1.076,0,0,1,10,18a1.417,1.417,0,0,1-.875-.281A2.085,2.085,0,0,0,10.3,19.61a5.45,5.45,0,0,0,2.641.7A3.388,3.388,0,0,1,11.3,21.579,6.23,6.23,0,0,1,9,22a4.7,4.7,0,0,1-1.2-.219q-.766-.219-.8-.219a4.084,4.084,0,0,0,2.047,1.719A9.31,9.31,0,0,0,12.969,24a10.31,10.31,0,0,0,3.907-.734,9.717,9.717,0,0,0,3.093-1.953,12.831,12.831,0,0,0,2.2-2.781A13,13,0,0,0,23.548,15.3,12.634,12.634,0,0,0,24,12q0-.062.375-.266a10.084,10.084,0,0,0,.875-.547,2.764,2.764,0,0,0,.75-.719q-1.687,0-2.25.062A4.2,4.2,0,0,0,25.406,8Z" transform="translate(0 0)" fill="#fff"/>
</svg>
