<svg width="20" height="17" viewBox="0 0 20 17" fill="none" xmlns="http://www.w3.org/2000/svg">
<path fill-rule="evenodd" clip-rule="evenodd" d="M3.94675 12.5112C4.00498 12.4481 4.07534 12.3975 4.15362 12.3622C4.2319 12.327 4.31649 12.308 4.40231 12.3062H18.7161C18.7767 12.3071 18.8357 12.3254 18.8861 12.359C18.9365 12.3926 18.9761 12.44 19.0002 12.4956C19.0242 12.5512 19.0317 12.6126 19.0217 12.6723C19.0118 12.732 18.9847 12.7876 18.9439 12.8324L15.9098 16.2013C15.8516 16.2643 15.7812 16.315 15.703 16.3502C15.6247 16.3855 15.5401 16.4045 15.4543 16.4063H1.13136C1.0708 16.4054 1.01177 16.3871 0.961382 16.3535C0.910991 16.3199 0.871383 16.2724 0.84732 16.2168C0.823258 16.1613 0.815767 16.0999 0.825748 16.0402C0.835729 15.9804 0.862757 15.9248 0.903581 15.8801L3.94675 12.5112ZM18.9576 9.7186C18.9984 9.76334 19.0254 9.81893 19.0354 9.87867C19.0454 9.93841 19.0379 9.99976 19.0138 10.0553C18.9898 10.1109 18.9502 10.1584 18.8998 10.192C18.8494 10.2256 18.7903 10.2439 18.7298 10.2448L4.41142 10.2562C4.3256 10.2544 4.24101 10.2353 4.16273 10.2001C4.08445 10.1649 4.01409 10.1142 3.95586 10.0512L0.899025 6.69366C0.858201 6.64891 0.831173 6.59333 0.821192 6.53359C0.811211 6.47385 0.818702 6.41249 0.842765 6.35691C0.866827 6.30133 0.906436 6.25388 0.956826 6.22027C1.00722 6.18667 1.06624 6.16833 1.12681 6.16748L15.4452 6.15609C15.531 6.15785 15.6156 6.17691 15.6939 6.21213C15.7721 6.24736 15.8425 6.29802 15.9007 6.36109L18.9576 9.7186ZM3.94675 0.210985C4.00498 0.147915 4.07534 0.0972497 4.15362 0.0620237C4.2319 0.0267976 4.31649 0.00773618 4.40231 0.00598145L18.7252 0.0173705C18.7858 0.0182235 18.8448 0.0365554 18.8952 0.0701613C18.9456 0.103767 18.9852 0.151216 19.0093 0.2068C19.0333 0.262384 19.0408 0.323736 19.0308 0.383477C19.0209 0.443218 18.9938 0.498803 18.953 0.543547L15.9098 3.90105C15.8516 3.96412 15.7812 4.01479 15.703 4.05001C15.6247 4.08524 15.5401 4.1043 15.4543 4.10605H1.13136C1.0708 4.1052 1.01177 4.08687 0.961382 4.05326C0.910991 4.01966 0.871383 3.97221 0.84732 3.91663C0.823258 3.86104 0.815767 3.79969 0.825748 3.73995C0.835729 3.68021 0.862757 3.62462 0.903581 3.57988L3.94675 0.210985Z" fill="white"/>
</svg>
