<svg id="Group_658" data-name="Group 658" xmlns="http://www.w3.org/2000/svg" width="27.216" height="31" viewBox="0 0 27.216 31">
  <path id="Subtraction_8" d="M23.814,20.412H3.4A3.406,3.406,0,0,1,0,17.01v-1.7H27.216v1.7A3.406,3.406,0,0,1,23.814,20.412Zm3.4-8.505H0V3.4A3.406,3.406,0,0,1,3.4,0H3.78A5.258,5.258,0,0,0,5.332,3.74a5.255,5.255,0,0,0,3.74,1.552A5.3,5.3,0,0,0,14.364,0h9.45a3.406,3.406,0,0,1,3.4,3.4v8.5ZM19.562,5.1a.851.851,0,0,0-.851.851v1.7a.851.851,0,0,0,.851.851h3.4a.851.851,0,0,0,.851-.851v-1.7a.851.851,0,0,0-.851-.851Z" transform="translate(0 10.588)"/>
  <g id="arrow-down-short" transform="translate(15.742 13.472) rotate(180)">
    <path id="Union_6" d="M5.774,12.51V3.286L1.646,7.419a.974.974,0,0,1-1.366,0,.969.969,0,0,1,0-1.363L6.054.284a.961.961,0,0,1,1.365,0l5.77,5.772a.963.963,0,0,1-1.362,1.363L7.7,3.288V12.51a.963.963,0,1,1-1.925,0Z"/>
  </g>
</svg>
