<svg xmlns="http://www.w3.org/2000/svg" width="16" height="16" viewBox="0 0 16 16">
  <path id="Path_1597" data-name="Path 1597" d="M10,2a8,8,0,1,0,8,8A8,8,0,0,0,10,2Zm0,14.4A6.4,6.4,0,1,1,16.4,10,6.408,6.408,0,0,1,10,16.4Zm.248-7.088c-1.416-.36-1.872-.752-1.872-1.336,0-.672.632-1.144,1.68-1.144,1.1,0,1.52.528,1.552,1.312h1.368a2.482,2.482,0,0,0-1.992-2.376V4.4H9.12V5.752A2.417,2.417,0,0,0,6.944,8c0,1.432,1.192,2.152,2.928,2.568,1.56.368,1.872.92,1.872,1.5,0,.424-.312,1.112-1.68,1.112-1.28,0-1.784-.576-1.856-1.312H6.832A2.594,2.594,0,0,0,9.12,14.24V15.6h1.872V14.264c1.216-.232,2.176-.928,2.184-2.216C13.168,10.288,11.656,9.68,10.248,9.312Z" transform="translate(-2 -2)"/>
</svg>
