<svg xmlns="http://www.w3.org/2000/svg" width="535.998" height="160.002" viewBox="0 0 535.998 160.002">
  <g id="Group_3073" data-name="Group 3073" transform="translate(-1244.002 -458.002)">
    <g id="Union_27" data-name="Union 27" transform="translate(-15564 -18577)" fill="none" stroke-dasharray="8 8">
      <path d="M17264,19195h-456l80-80-80-80h456v0l80,80-80,80v0Z" stroke="none"/>
      <path d="M 17264.00390625 19195.00390625 L 17256.00390625 19195.00390625 L 17256.00390625 19194.00390625 L 17263.5859375 19194.00390625 L 17266.5078125 19191.080078125 L 17267.216796875 19191.787109375 L 17264.435546875 19194.568359375 C 17264.43359375 19194.5703125 17264.43359375 19194.5703125 17264.431640625 19194.572265625 L 17264.4296875 19194.57421875 C 17264.427734375 19194.576171875 17264.427734375 19194.576171875 17264.42578125 19194.578125 L 17264.421875 19194.58203125 C 17264.419921875 19194.583984375 17264.419921875 19194.583984375 17264.41796875 19194.5859375 L 17264.416015625 19194.587890625 C 17264.4140625 19194.58984375 17264.4140625 19194.58984375 17264.412109375 19194.591796875 L 17264.41015625 19194.59375 C 17264.408203125 19194.595703125 17264.40625 19194.59765625 17264.40625 19194.59765625 L 17264.3828125 19194.62109375 C 17264.380859375 19194.623046875 17264.376953125 19194.626953125 17264.375 19194.62890625 L 17264.369140625 19194.634765625 C 17264.3671875 19194.63671875 17264.36328125 19194.640625 17264.359375 19194.64453125 L 17264.359375 19194.64453125 C 17264.35546875 19194.6484375 17264.353515625 19194.650390625 17264.349609375 19194.654296875 L 17264.345703125 19194.658203125 C 17264.337890625 19194.666015625 17264.33203125 19194.671875 17264.32421875 19194.6796875 L 17264.322265625 19194.681640625 C 17264.3203125 19194.68359375 17264.31640625 19194.6875 17264.3125 19194.69140625 L 17264.310546875 19194.693359375 C 17264.30859375 19194.6953125 17264.30859375 19194.6953125 17264.306640625 19194.697265625 L 17264.3046875 19194.69921875 C 17264.3046875 19194.69921875 17264.3046875 19194.69921875 17264.302734375 19194.701171875 L 17264.298828125 19194.705078125 C 17264.294921875 19194.708984375 17264.29296875 19194.7109375 17264.2890625 19194.71484375 L 17264.2890625 19194.71484375 C 17264.27734375 19194.7265625 17264.267578125 19194.736328125 17264.255859375 19194.748046875 L 17264.255859375 19194.748046875 C 17264.2421875 19194.76171875 17264.228515625 19194.775390625 17264.21484375 19194.7890625 L 17264.21484375 19194.7890625 C 17264.201171875 19194.802734375 17264.189453125 19194.814453125 17264.17578125 19194.828125 L 17264.17578125 19194.828125 C 17264.1640625 19194.83984375 17264.154296875 19194.849609375 17264.142578125 19194.861328125 L 17264.140625 19194.86328125 C 17264.052734375 19194.951171875 17264.00390625 19195 17264.00390625 19195 L 17264.00390625 19195.00390625 Z M 17248.00390625 19195.00390625 L 17240.00390625 19195.00390625 L 17240.00390625 19194.00390625 L 17248.00390625 19194.00390625 L 17248.00390625 19195.00390625 Z M 17232.00390625 19195.00390625 L 17224.00390625 19195.00390625 L 17224.00390625 19194.00390625 L 17232.00390625 19194.00390625 L 17232.00390625 19195.00390625 Z M 17216.00390625 19195.00390625 L 17208.00390625 19195.00390625 L 17208.00390625 19194.00390625 L 17216.00390625 19194.00390625 L 17216.00390625 19195.00390625 Z M 17200.00390625 19195.00390625 L 17192.00390625 19195.00390625 L 17192.00390625 19194.00390625 L 17200.00390625 19194.00390625 L 17200.00390625 19195.00390625 Z M 17184.00390625 19195.00390625 L 17176.00390625 19195.00390625 L 17176.00390625 19194.00390625 L 17184.00390625 19194.00390625 L 17184.00390625 19195.00390625 Z M 17168.00390625 19195.00390625 L 17160.00390625 19195.00390625 L 17160.00390625 19194.00390625 L 17168.00390625 19194.00390625 L 17168.00390625 19195.00390625 Z M 17152.00390625 19195.00390625 L 17144.00390625 19195.00390625 L 17144.00390625 19194.00390625 L 17152.00390625 19194.00390625 L 17152.00390625 19195.00390625 Z M 17136.00390625 19195.00390625 L 17128.00390625 19195.00390625 L 17128.00390625 19194.00390625 L 17136.00390625 19194.00390625 L 17136.00390625 19195.00390625 Z M 17120.00390625 19195.00390625 L 17112.00390625 19195.00390625 L 17112.00390625 19194.00390625 L 17120.00390625 19194.00390625 L 17120.00390625 19195.00390625 Z M 17104.00390625 19195.00390625 L 17096.00390625 19195.00390625 L 17096.00390625 19194.00390625 L 17104.00390625 19194.00390625 L 17104.00390625 19195.00390625 Z M 17088.00390625 19195.00390625 L 17080.00390625 19195.00390625 L 17080.00390625 19194.00390625 L 17088.00390625 19194.00390625 L 17088.00390625 19195.00390625 Z M 17072.00390625 19195.00390625 L 17064.00390625 19195.00390625 L 17064.00390625 19194.00390625 L 17072.00390625 19194.00390625 L 17072.00390625 19195.00390625 Z M 17056.00390625 19195.00390625 L 17048.00390625 19195.00390625 L 17048.00390625 19194.00390625 L 17056.00390625 19194.00390625 L 17056.00390625 19195.00390625 Z M 17040.00390625 19195.00390625 L 17032.00390625 19195.00390625 L 17032.00390625 19194.00390625 L 17040.00390625 19194.00390625 L 17040.00390625 19195.00390625 Z M 17024.00390625 19195.00390625 L 17016.00390625 19195.00390625 L 17016.00390625 19194.00390625 L 17024.00390625 19194.00390625 L 17024.00390625 19195.00390625 Z M 17008.00390625 19195.00390625 L 17000.00390625 19195.00390625 L 17000.00390625 19194.00390625 L 17008.00390625 19194.00390625 L 17008.00390625 19195.00390625 Z M 16992.00390625 19195.00390625 L 16984.00390625 19195.00390625 L 16984.00390625 19194.00390625 L 16992.00390625 19194.00390625 L 16992.00390625 19195.00390625 Z M 16976.00390625 19195.00390625 L 16968.00390625 19195.00390625 L 16968.00390625 19194.00390625 L 16976.00390625 19194.00390625 L 16976.00390625 19195.00390625 Z M 16960.00390625 19195.00390625 L 16952.00390625 19195.00390625 L 16952.00390625 19194.00390625 L 16960.00390625 19194.00390625 L 16960.00390625 19195.00390625 Z M 16944.00390625 19195.00390625 L 16936.00390625 19195.00390625 L 16936.00390625 19194.00390625 L 16944.00390625 19194.00390625 L 16944.00390625 19195.00390625 Z M 16928.00390625 19195.00390625 L 16920.00390625 19195.00390625 L 16920.00390625 19194.00390625 L 16928.00390625 19194.00390625 L 16928.00390625 19195.00390625 Z M 16912.00390625 19195.00390625 L 16904.00390625 19195.00390625 L 16904.00390625 19194.00390625 L 16912.00390625 19194.00390625 L 16912.00390625 19195.00390625 Z M 16896.00390625 19195.00390625 L 16888.00390625 19195.00390625 L 16888.00390625 19194.00390625 L 16896.00390625 19194.00390625 L 16896.00390625 19195.00390625 Z M 16880.00390625 19195.00390625 L 16872.00390625 19195.00390625 L 16872.00390625 19194.00390625 L 16880.00390625 19194.00390625 L 16880.00390625 19195.00390625 Z M 16864.00390625 19195.00390625 L 16856.00390625 19195.00390625 L 16856.00390625 19194.00390625 L 16864.00390625 19194.00390625 L 16864.00390625 19195.00390625 Z M 16848.00390625 19195.00390625 L 16840.00390625 19195.00390625 L 16840.00390625 19194.00390625 L 16848.00390625 19194.00390625 L 16848.00390625 19195.00390625 Z M 16832.00390625 19195.00390625 L 16824.00390625 19195.00390625 L 16824.00390625 19194.00390625 L 16832.00390625 19194.00390625 L 16832.00390625 19195.00390625 Z M 16816.00390625 19195.00390625 L 16808.001953125 19195.00390625 L 16809.001953125 19194.00390625 L 16816.00390625 19194.00390625 L 16816.00390625 19195.00390625 Z M 16814.365234375 19190.0546875 L 16813.65625 19189.34765625 C 16813.65625 19189.34765625 16814.068359375 19188.935546875 16814.669921875 19188.333984375 L 16819.314453125 19183.69140625 L 16820.021484375 19184.3984375 L 16814.365234375 19190.0546875 Z M 16825.677734375 19178.7421875 L 16824.970703125 19178.033203125 C 16824.970703125 19178.033203125 16830.626953125 19172.376953125 16830.626953125 19172.376953125 L 16831.333984375 19173.083984375 L 16825.677734375 19178.7421875 Z M 16836.990234375 19167.427734375 L 16836.283203125 19166.720703125 L 16841.939453125 19161.0625 L 16842.6484375 19161.76953125 L 16836.990234375 19167.427734375 Z M 16848.3046875 19156.11328125 L 16847.59765625 19155.40625 C 16847.59765625 19155.40625 16853.25390625 19149.748046875 16853.25390625 19149.748046875 L 16853.9609375 19150.455078125 L 16848.3046875 19156.11328125 Z M 16859.6171875 19144.798828125 L 16858.91015625 19144.091796875 L 16864.56640625 19138.435546875 L 16865.2734375 19139.142578125 L 16859.6171875 19144.798828125 Z M 16870.931640625 19133.484375 L 16870.224609375 19132.77734375 L 16871.83984375 19131.162109375 C 16871.84375 19131.158203125 16871.84765625 19131.154296875 16871.849609375 19131.150390625 L 16871.853515625 19131.1484375 C 16873.525390625 19129.4765625 16875.880859375 19127.12109375 16875.880859375 19127.12109375 L 16876.587890625 19127.828125 L 16870.931640625 19133.484375 Z M 16882.244140625 19122.169921875 L 16881.537109375 19121.462890625 L 16882.31640625 19120.685546875 C 16882.31640625 19120.68359375 16882.318359375 19120.681640625 16882.3203125 19120.681640625 L 16882.33984375 19120.66015625 C 16882.341796875 19120.658203125 16882.341796875 19120.658203125 16882.34375 19120.65625 L 16882.357421875 19120.642578125 C 16882.359375 19120.640625 16882.359375 19120.640625 16882.359375 19120.640625 L 16882.40234375 19120.59765625 C 16882.40234375 19120.59765625 16882.40234375 19120.59765625 16882.40234375 19120.59765625 L 16882.435546875 19120.564453125 C 16882.447265625 19120.552734375 16882.458984375 19120.541015625 16882.47265625 19120.529296875 L 16882.48046875 19120.51953125 C 16882.537109375 19120.462890625 16882.595703125 19120.404296875 16882.65625 19120.34375 L 16882.66796875 19120.33203125 C 16882.66796875 19120.33203125 16882.669921875 19120.330078125 16882.671875 19120.330078125 L 16882.67578125 19120.32421875 C 16882.6796875 19120.322265625 16882.68359375 19120.318359375 16882.6875 19120.314453125 L 16882.697265625 19120.302734375 C 16882.716796875 19120.283203125 16882.736328125 19120.263671875 16882.7578125 19120.244140625 L 16882.7578125 19120.2421875 C 16884.421875 19118.580078125 16887.193359375 19115.806640625 16887.193359375 19115.806640625 L 16887.900390625 19116.513671875 L 16882.244140625 19122.169921875 Z M 16883.146484375 19110.150390625 L 16879.88671875 19106.890625 C 16878.62890625 19105.6328125 16877.48828125 19104.4921875 16877.48828125 19104.4921875 L 16878.1953125 19103.78515625 L 16883.853515625 19109.44140625 L 16883.146484375 19110.150390625 Z M 16871.83203125 19098.8359375 C 16871.83203125 19098.8359375 16866.17578125 19093.177734375 16866.17578125 19093.177734375 L 16866.8828125 19092.470703125 L 16872.5390625 19098.12890625 L 16871.83203125 19098.8359375 Z M 16860.51953125 19087.521484375 C 16860.51953125 19087.521484375 16858.177734375 19085.1796875 16856.5078125 19083.509765625 L 16856.505859375 19083.5078125 C 16856.5 19083.501953125 16856.49609375 19083.498046875 16856.490234375 19083.494140625 L 16856.490234375 19083.4921875 C 16856.47265625 19083.474609375 16856.455078125 19083.45703125 16856.4375 19083.439453125 L 16856.40234375 19083.404296875 C 16856.400390625 19083.40234375 16856.3984375 19083.400390625 16856.396484375 19083.3984375 L 16856.390625 19083.392578125 C 16856.38671875 19083.388671875 16856.380859375 19083.384765625 16856.376953125 19083.37890625 L 16856.3671875 19083.369140625 C 16856.36328125 19083.365234375 16856.361328125 19083.36328125 16856.357421875 19083.359375 L 16856.35546875 19083.357421875 C 16856.349609375 19083.3515625 16856.34375 19083.345703125 16856.337890625 19083.33984375 L 16856.33203125 19083.333984375 C 16856.318359375 19083.3203125 16856.3046875 19083.306640625 16856.291015625 19083.294921875 L 16856.28515625 19083.287109375 C 16856.283203125 19083.287109375 16856.283203125 19083.28515625 16856.28125 19083.283203125 L 16856.240234375 19083.244140625 C 16856.23828125 19083.240234375 16856.236328125 19083.23828125 16856.234375 19083.236328125 L 16856.23046875 19083.232421875 C 16856.220703125 19083.22265625 16856.208984375 19083.212890625 16856.19921875 19083.203125 L 16856.1875 19083.189453125 C 16856.181640625 19083.18359375 16856.17578125 19083.177734375 16856.169921875 19083.171875 L 16856.166015625 19083.16796875 C 16856.158203125 19083.16015625 16856.1484375 19083.15234375 16856.140625 19083.142578125 L 16856.13671875 19083.138671875 C 16856.125 19083.126953125 16856.11328125 19083.115234375 16856.1015625 19083.103515625 L 16856.09375 19083.09765625 C 16856.087890625 19083.091796875 16856.083984375 19083.0859375 16856.078125 19083.080078125 L 16856.064453125 19083.068359375 C 16856.060546875 19083.064453125 16856.056640625 19083.060546875 16856.052734375 19083.0546875 L 16856.037109375 19083.0390625 C 16856.02734375 19083.03125 16856.01953125 19083.021484375 16856.01171875 19083.013671875 L 16855.9609375 19082.962890625 C 16855.958984375 19082.962890625 16855.958984375 19082.9609375 16855.95703125 19082.958984375 L 16854.861328125 19081.865234375 L 16855.568359375 19081.158203125 L 16861.2265625 19086.814453125 L 16860.51953125 19087.521484375 Z M 16849.205078125 19076.20703125 L 16843.548828125 19070.55078125 L 16844.255859375 19069.84375 L 16849.912109375 19075.5 L 16849.205078125 19076.20703125 Z M 16837.892578125 19064.89453125 L 16832.234375 19059.236328125 L 16832.943359375 19058.529296875 L 16838.599609375 19064.185546875 L 16837.892578125 19064.89453125 Z M 16826.578125 19053.580078125 C 16826.578125 19053.580078125 16820.921875 19047.921875 16820.921875 19047.921875 L 16821.62890625 19047.21484375 L 16827.28515625 19052.873046875 L 16826.578125 19053.580078125 Z M 16815.265625 19042.265625 C 16815.265625 19042.265625 16814.685546875 19041.685546875 16813.896484375 19040.896484375 L 16809.609375 19036.609375 L 16810.31640625 19035.90234375 L 16815.97265625 19041.55859375 L 16815.265625 19042.265625 Z M 16821.73046875 19036.001953125 L 16813.73046875 19036.001953125 L 16813.73046875 19035.001953125 C 16813.73046875 19035.001953125 16821.73046875 19035.001953125 16821.73046875 19035.001953125 L 16821.73046875 19036.001953125 Z M 16837.73046875 19036.001953125 L 16829.73046875 19036.001953125 L 16829.73046875 19035.001953125 C 16829.73046875 19035.001953125 16837.73046875 19035.001953125 16837.73046875 19035.001953125 L 16837.73046875 19036.001953125 Z M 16853.73046875 19036.001953125 L 16845.73046875 19036.001953125 L 16845.73046875 19035.001953125 C 16845.73046875 19035.001953125 16853.73046875 19035.001953125 16853.73046875 19035.001953125 L 16853.73046875 19036.001953125 Z M 16869.73046875 19036.001953125 L 16861.73046875 19036.001953125 L 16861.73046875 19035.001953125 C 16861.73046875 19035.001953125 16869.73046875 19035.001953125 16869.73046875 19035.001953125 L 16869.73046875 19036.001953125 Z M 16885.73046875 19036.001953125 L 16877.73046875 19036.001953125 L 16877.73046875 19035.001953125 C 16877.73046875 19035.001953125 16885.73046875 19035.001953125 16885.73046875 19035.001953125 L 16885.73046875 19036.001953125 Z M 16901.73046875 19036.001953125 L 16893.73046875 19036.001953125 L 16893.73046875 19035.001953125 C 16893.73046875 19035.001953125 16901.73046875 19035.001953125 16901.73046875 19035.001953125 L 16901.73046875 19036.001953125 Z M 16917.73046875 19036.001953125 L 16909.73046875 19036.001953125 L 16909.73046875 19035.001953125 C 16909.73046875 19035.001953125 16917.73046875 19035.001953125 16917.73046875 19035.001953125 L 16917.73046875 19036.001953125 Z M 16933.73046875 19036.001953125 L 16925.73046875 19036.001953125 L 16925.73046875 19035.001953125 C 16925.73046875 19035.001953125 16933.73046875 19035.001953125 16933.73046875 19035.001953125 L 16933.73046875 19036.001953125 Z M 16949.73046875 19036.001953125 L 16941.73046875 19036.001953125 L 16941.73046875 19035.001953125 C 16941.73046875 19035.001953125 16949.73046875 19035.001953125 16949.73046875 19035.001953125 L 16949.73046875 19036.001953125 Z M 16965.73046875 19036.001953125 L 16957.73046875 19036.001953125 L 16957.73046875 19035.001953125 C 16957.73046875 19035.001953125 16965.73046875 19035.001953125 16965.73046875 19035.001953125 L 16965.73046875 19036.001953125 Z M 16981.73046875 19036.001953125 L 16973.73046875 19036.001953125 L 16973.73046875 19035.001953125 C 16973.73046875 19035.001953125 16981.73046875 19035.001953125 16981.73046875 19035.001953125 L 16981.73046875 19036.001953125 Z M 16997.73046875 19036.001953125 L 16989.73046875 19036.001953125 L 16989.73046875 19035.001953125 C 16989.73046875 19035.001953125 16997.73046875 19035.001953125 16997.73046875 19035.001953125 L 16997.73046875 19036.001953125 Z M 17013.73046875 19036.001953125 L 17005.73046875 19036.001953125 L 17005.73046875 19035.001953125 C 17005.73046875 19035.001953125 17013.73046875 19035.001953125 17013.73046875 19035.001953125 L 17013.73046875 19036.001953125 Z M 17029.73046875 19036.001953125 L 17021.73046875 19036.001953125 L 17021.73046875 19035.001953125 C 17021.73046875 19035.001953125 17029.73046875 19035.001953125 17029.73046875 19035.001953125 L 17029.73046875 19036.001953125 Z M 17045.73046875 19036.001953125 L 17037.73046875 19036.001953125 L 17037.73046875 19035.001953125 C 17037.73046875 19035.001953125 17045.73046875 19035.001953125 17045.73046875 19035.001953125 L 17045.73046875 19036.001953125 Z M 17061.73046875 19036.001953125 L 17053.73046875 19036.001953125 L 17053.73046875 19035.001953125 C 17053.73046875 19035.001953125 17061.73046875 19035.001953125 17061.73046875 19035.001953125 L 17061.73046875 19036.001953125 Z M 17077.73046875 19036.001953125 L 17069.73046875 19036.001953125 L 17069.73046875 19035.001953125 C 17069.73046875 19035.001953125 17077.73046875 19035.001953125 17077.73046875 19035.001953125 L 17077.73046875 19036.001953125 Z M 17093.73046875 19036.001953125 L 17085.73046875 19036.001953125 L 17085.73046875 19035.001953125 C 17085.73046875 19035.001953125 17093.73046875 19035.001953125 17093.73046875 19035.001953125 L 17093.73046875 19036.001953125 Z M 17109.73046875 19036.001953125 L 17101.73046875 19036.001953125 L 17101.73046875 19035.001953125 C 17101.73046875 19035.001953125 17109.73046875 19035.001953125 17109.73046875 19035.001953125 L 17109.73046875 19036.001953125 Z M 17125.73046875 19036.001953125 L 17117.73046875 19036.001953125 L 17117.73046875 19035.001953125 C 17117.73046875 19035.001953125 17125.73046875 19035.001953125 17125.73046875 19035.001953125 L 17125.73046875 19036.001953125 Z M 17141.73046875 19036.001953125 L 17133.73046875 19036.001953125 L 17133.73046875 19035.001953125 C 17133.73046875 19035.001953125 17141.73046875 19035.001953125 17141.73046875 19035.001953125 L 17141.73046875 19036.001953125 Z M 17157.73046875 19036.001953125 L 17149.73046875 19036.001953125 L 17149.73046875 19035.001953125 C 17149.73046875 19035.001953125 17157.73046875 19035.001953125 17157.73046875 19035.001953125 L 17157.73046875 19036.001953125 Z M 17173.73046875 19036.001953125 L 17165.73046875 19036.001953125 L 17165.73046875 19035.001953125 C 17165.73046875 19035.001953125 17173.73046875 19035.001953125 17173.73046875 19035.001953125 L 17173.73046875 19036.001953125 Z M 17189.73046875 19036.001953125 L 17181.73046875 19036.001953125 L 17181.73046875 19035.001953125 C 17181.73046875 19035.001953125 17189.73046875 19035.001953125 17189.73046875 19035.001953125 L 17189.73046875 19036.001953125 Z M 17205.73046875 19036.001953125 L 17197.73046875 19036.001953125 L 17197.73046875 19035.001953125 C 17197.73046875 19035.001953125 17205.73046875 19035.001953125 17205.73046875 19035.001953125 L 17205.73046875 19036.001953125 Z M 17221.73046875 19036.001953125 L 17213.73046875 19036.001953125 L 17213.73046875 19035.001953125 C 17213.73046875 19035.001953125 17221.73046875 19035.001953125 17221.73046875 19035.001953125 L 17221.73046875 19036.001953125 Z M 17237.73046875 19036.001953125 L 17229.73046875 19036.001953125 L 17229.73046875 19035.001953125 C 17229.73046875 19035.001953125 17237.73046875 19035.001953125 17237.73046875 19035.001953125 L 17237.73046875 19036.001953125 Z M 17253.73046875 19036.001953125 L 17245.73046875 19036.001953125 L 17245.73046875 19035.001953125 C 17245.73046875 19035.001953125 17253.73046875 19035.001953125 17253.73046875 19035.001953125 L 17253.73046875 19036.001953125 Z M 17267.34375 19039.759765625 L 17263.5859375 19036.001953125 L 17261.73046875 19036.001953125 L 17261.73046875 19035.001953125 C 17261.73046875 19035.001953125 17264.00390625 19035.001953125 17264.00390625 19035.001953125 L 17264.00390625 19035.005859375 C 17264.00390625 19035.005859375 17264.06640625 19035.068359375 17264.177734375 19035.1796875 L 17264.177734375 19035.1796875 C 17264.234375 19035.236328125 17264.30078125 19035.302734375 17264.376953125 19035.37890625 L 17264.376953125 19035.37890625 C 17264.453125 19035.455078125 17264.5390625 19035.541015625 17264.6328125 19035.634765625 L 17264.638671875 19035.640625 C 17264.640625 19035.642578125 17264.642578125 19035.64453125 17264.64453125 19035.646484375 L 17264.64453125 19035.646484375 C 17264.6484375 19035.650390625 17264.650390625 19035.65234375 17264.654296875 19035.65625 L 17264.654296875 19035.65625 C 17264.66015625 19035.662109375 17264.666015625 19035.66796875 17264.671875 19035.673828125 L 17264.671875 19035.673828125 C 17264.677734375 19035.6796875 17264.68359375 19035.685546875 17264.689453125 19035.69140625 L 17264.69140625 19035.693359375 C 17264.697265625 19035.69921875 17264.703125 19035.705078125 17264.708984375 19035.7109375 L 17264.708984375 19035.7109375 C 17264.732421875 19035.734375 17264.7578125 19035.759765625 17264.783203125 19035.78515625 L 17264.78515625 19035.787109375 C 17264.810546875 19035.8125 17264.8359375 19035.837890625 17264.861328125 19035.86328125 L 17264.86328125 19035.865234375 C 17264.888671875 19035.890625 17264.9140625 19035.916015625 17264.939453125 19035.94140625 L 17264.9453125 19035.947265625 C 17264.970703125 19035.97265625 17264.998046875 19036 17265.0234375 19036.025390625 L 17265.025390625 19036.02734375 C 17265.052734375 19036.0546875 17265.080078125 19036.08203125 17265.107421875 19036.109375 L 17265.11328125 19036.11328125 C 17265.125 19036.126953125 17265.138671875 19036.140625 17265.150390625 19036.15234375 L 17265.154296875 19036.15625 C 17265.166015625 19036.16796875 17265.1796875 19036.181640625 17265.193359375 19036.1953125 L 17265.19921875 19036.201171875 C 17265.203125 19036.205078125 17265.208984375 19036.2109375 17265.212890625 19036.21484375 L 17265.21875 19036.220703125 C 17265.224609375 19036.2265625 17265.23046875 19036.232421875 17265.236328125 19036.23828125 L 17265.25390625 19036.255859375 C 17265.255859375 19036.2578125 17265.255859375 19036.2578125 17265.2578125 19036.259765625 L 17265.33203125 19036.333984375 C 17265.333984375 19036.3359375 17265.3359375 19036.337890625 17265.337890625 19036.33984375 L 17265.341796875 19036.34375 C 17265.34375 19036.345703125 17265.345703125 19036.34765625 17265.34765625 19036.349609375 L 17265.38671875 19036.388671875 C 17265.388671875 19036.390625 17265.392578125 19036.39453125 17265.39453125 19036.396484375 L 17265.3984375 19036.400390625 C 17265.404296875 19036.40625 17265.412109375 19036.4140625 17265.41796875 19036.419921875 L 17265.419921875 19036.421875 C 17265.42578125 19036.427734375 17265.43359375 19036.435546875 17265.439453125 19036.44140625 L 17265.4453125 19036.447265625 C 17265.447265625 19036.44921875 17265.44921875 19036.44921875 17265.44921875 19036.451171875 L 17265.48046875 19036.482421875 C 17265.48046875 19036.482421875 17265.482421875 19036.484375 17265.482421875 19036.484375 L 17265.4921875 19036.494140625 C 17265.49609375 19036.498046875 17265.501953125 19036.50390625 17265.505859375 19036.5078125 L 17265.513671875 19036.515625 C 17265.51953125 19036.521484375 17265.525390625 19036.52734375 17265.53125 19036.533203125 L 17265.5390625 19036.541015625 C 17265.5390625 19036.541015625 17265.5390625 19036.541015625 17265.5390625 19036.541015625 L 17265.548828125 19036.548828125 C 17265.548828125 19036.55078125 17265.55078125 19036.552734375 17265.552734375 19036.5546875 L 17265.5625 19036.564453125 C 17265.564453125 19036.56640625 17265.564453125 19036.56640625 17265.56640625 19036.568359375 L 17265.568359375 19036.5703125 C 17265.572265625 19036.57421875 17265.576171875 19036.578125 17265.580078125 19036.58203125 L 17265.580078125 19036.58203125 C 17265.587890625 19036.587890625 17265.59375 19036.595703125 17265.6015625 19036.603515625 L 17265.60546875 19036.607421875 C 17265.611328125 19036.61328125 17265.6171875 19036.619140625 17265.625 19036.625 L 17265.62890625 19036.630859375 C 17265.630859375 19036.6328125 17265.6328125 19036.634765625 17265.634765625 19036.63671875 L 17265.67578125 19036.677734375 C 17265.681640625 19036.68359375 17265.6875 19036.689453125 17265.693359375 19036.6953125 L 17265.701171875 19036.703125 C 17265.70703125 19036.70703125 17265.7109375 19036.712890625 17265.716796875 19036.71875 L 17265.72265625 19036.724609375 C 17265.728515625 19036.73046875 17265.732421875 19036.734375 17265.73828125 19036.740234375 L 17265.748046875 19036.75 C 17265.75390625 19036.755859375 17265.7578125 19036.759765625 17265.763671875 19036.765625 L 17265.771484375 19036.7734375 C 17265.771484375 19036.7734375 17265.7734375 19036.775390625 17265.775390625 19036.77734375 L 17265.794921875 19036.796875 C 17265.796875 19036.798828125 17265.796875 19036.798828125 17265.796875 19036.798828125 L 17265.8671875 19036.869140625 C 17265.8671875 19036.869140625 17265.8671875 19036.869140625 17265.8671875 19036.869140625 L 17266.46875 19037.470703125 C 17266.46875 19037.470703125 17266.46875 19037.470703125 17266.46875 19037.470703125 L 17268.05078125 19039.052734375 L 17267.34375 19039.759765625 Z M 17278.65625 19051.072265625 L 17273 19045.416015625 L 17273.70703125 19044.708984375 C 17273.70703125 19044.708984375 17276.81640625 19047.818359375 17278.42578125 19049.427734375 L 17279.36328125 19050.365234375 L 17278.65625 19051.072265625 Z M 17289.970703125 19062.38671875 L 17284.3125 19056.73046875 L 17285.021484375 19056.0234375 L 17290.677734375 19061.6796875 L 17289.970703125 19062.38671875 Z M 17301.283203125 19073.69921875 L 17295.626953125 19068.04296875 L 17296.333984375 19067.3359375 L 17298.673828125 19069.67578125 C 17298.681640625 19069.68359375 17298.689453125 19069.69140625 17298.697265625 19069.69921875 L 17298.703125 19069.705078125 C 17300.251953125 19071.25390625 17301.990234375 19072.9921875 17301.990234375 19072.9921875 L 17301.283203125 19073.69921875 Z M 17312.59765625 19085.013671875 L 17306.94140625 19079.357421875 L 17307.6484375 19078.650390625 C 17307.6484375 19078.650390625 17308.84765625 19079.849609375 17310.140625 19081.142578125 L 17310.15234375 19081.154296875 C 17310.154296875 19081.15625 17310.154296875 19081.15625 17310.15625 19081.158203125 L 17310.16796875 19081.169921875 C 17310.169921875 19081.171875 17310.169921875 19081.171875 17310.171875 19081.173828125 L 17313.3046875 19084.306640625 L 17312.59765625 19085.013671875 Z M 17323.912109375 19096.328125 L 17318.25390625 19090.669921875 L 17318.9609375 19089.962890625 L 17322.986328125 19093.98828125 C 17322.994140625 19093.99609375 17323.001953125 19094.00390625 17323.009765625 19094.01171875 L 17323.015625 19094.017578125 C 17323.033203125 19094.03515625 17323.052734375 19094.0546875 17323.072265625 19094.07421875 L 17323.072265625 19094.07421875 C 17323.94921875 19094.951171875 17324.619140625 19095.62109375 17324.619140625 19095.62109375 L 17323.912109375 19096.328125 Z M 17335.224609375 19107.640625 L 17329.568359375 19101.984375 L 17330.275390625 19101.27734375 C 17330.275390625 19101.27734375 17335.931640625 19106.93359375 17335.931640625 19106.93359375 L 17335.224609375 19107.640625 Z M 17340.75390625 19118.248046875 L 17340.046875 19117.541015625 L 17342.5859375 19115.001953125 L 17340.8828125 19113.298828125 L 17341.58984375 19112.591796875 C 17341.58984375 19112.591796875 17343.78515625 19114.787109375 17343.986328125 19114.98828125 L 17343.9921875 19114.994140625 C 17343.9921875 19114.994140625 17343.9921875 19114.994140625 17343.994140625 19114.99609375 L 17344 19115.001953125 C 17344 19115.001953125 17344 19115.001953125 17344 19115.001953125 L 17344 19115.001953125 C 17344 19115.001953125 17344 19115.001953125 17344 19115.001953125 L 17343.96484375 19115.037109375 C 17343.962890625 19115.0390625 17343.962890625 19115.0390625 17343.962890625 19115.0390625 L 17343.958984375 19115.04296875 C 17343.958984375 19115.04296875 17343.958984375 19115.04296875 17343.958984375 19115.04296875 L 17343.955078125 19115.046875 C 17343.955078125 19115.046875 17343.953125 19115.048828125 17343.953125 19115.048828125 L 17343.94921875 19115.052734375 C 17343.94921875 19115.052734375 17343.94921875 19115.052734375 17343.94921875 19115.052734375 L 17343.9453125 19115.056640625 C 17343.943359375 19115.05859375 17343.943359375 19115.05859375 17343.943359375 19115.05859375 L 17343.94140625 19115.060546875 C 17343.94140625 19115.060546875 17343.94140625 19115.060546875 17343.94140625 19115.060546875 L 17343.939453125 19115.0625 C 17343.9375 19115.064453125 17343.935546875 19115.06640625 17343.935546875 19115.06640625 L 17343.93359375 19115.068359375 C 17343.931640625 19115.0703125 17343.9296875 19115.072265625 17343.9296875 19115.072265625 L 17343.927734375 19115.07421875 C 17343.447265625 19115.5546875 17340.75390625 19118.248046875 17340.75390625 19118.248046875 Z M 17343.927734375 19115.07421875 L 17343.9296875 19115.072265625 C 17343.9296875 19115.072265625 17343.9296875 19115.072265625 17343.9296875 19115.072265625 L 17343.927734375 19115.07421875 Z M 17343.93359375 19115.068359375 L 17343.935546875 19115.06640625 C 17343.935546875 19115.06640625 17343.935546875 19115.06640625 17343.935546875 19115.06640625 L 17343.93359375 19115.068359375 Z M 17343.939453125 19115.0625 L 17343.94140625 19115.060546875 C 17343.94140625 19115.060546875 17343.94140625 19115.060546875 17343.94140625 19115.060546875 L 17343.939453125 19115.0625 Z M 17343.94140625 19115.060546875 L 17343.943359375 19115.05859375 C 17343.943359375 19115.05859375 17343.943359375 19115.05859375 17343.943359375 19115.05859375 L 17343.94140625 19115.060546875 Z M 17343.9453125 19115.056640625 L 17343.94921875 19115.052734375 C 17343.94921875 19115.052734375 17343.94921875 19115.052734375 17343.94921875 19115.052734375 L 17343.9453125 19115.056640625 Z M 17343.94921875 19115.052734375 L 17343.953125 19115.048828125 C 17343.953125 19115.048828125 17343.953125 19115.048828125 17343.953125 19115.048828125 L 17343.94921875 19115.052734375 Z M 17343.955078125 19115.046875 L 17343.958984375 19115.04296875 C 17343.958984375 19115.04296875 17343.958984375 19115.04296875 17343.958984375 19115.04296875 L 17343.955078125 19115.046875 Z M 17343.958984375 19115.04296875 L 17343.962890625 19115.0390625 C 17343.962890625 19115.0390625 17343.962890625 19115.0390625 17343.962890625 19115.0390625 L 17343.958984375 19115.04296875 Z M 17343.96484375 19115.037109375 L 17344 19115.001953125 C 17344 19115.001953125 17344 19115.001953125 17344 19115.001953125 L 17343.96484375 19115.037109375 Z M 17344 19115.001953125 L 17343.994140625 19114.99609375 C 17343.994140625 19114.99609375 17343.994140625 19114.99609375 17343.994140625 19114.99609375 L 17344 19115.001953125 Z M 17343.9921875 19114.994140625 L 17343.986328125 19114.98828125 C 17343.986328125 19114.98828125 17343.986328125 19114.98828125 17343.986328125 19114.98828125 L 17343.9921875 19114.994140625 Z M 17329.44140625 19129.5625 L 17328.734375 19128.85546875 L 17334.390625 19123.197265625 L 17335.09765625 19123.904296875 C 17335.09765625 19123.904296875 17329.44140625 19129.5625 17329.44140625 19129.5625 Z M 17318.126953125 19140.875 L 17317.419921875 19140.16796875 L 17323.076171875 19134.51171875 L 17323.783203125 19135.21875 L 17320.32421875 19138.6796875 C 17320.322265625 19138.6796875 17320.3203125 19138.681640625 17320.3203125 19138.68359375 L 17320.291015625 19138.7109375 C 17319.12890625 19139.873046875 17318.126953125 19140.875 17318.126953125 19140.875 Z M 17306.8125 19152.189453125 L 17306.10546875 19151.482421875 L 17311.763671875 19145.826171875 L 17312.470703125 19146.533203125 C 17312.470703125 19146.533203125 17306.8125 19152.189453125 17306.8125 19152.189453125 Z M 17295.5 19163.50390625 L 17294.79296875 19162.796875 L 17300.44921875 19157.138671875 L 17301.15625 19157.845703125 L 17295.5 19163.50390625 Z M 17284.185546875 19174.81640625 L 17283.478515625 19174.109375 L 17289.13671875 19168.453125 L 17289.84375 19169.16015625 L 17284.185546875 19174.81640625 Z M 17272.873046875 19186.130859375 L 17272.166015625 19185.423828125 L 17277.822265625 19179.767578125 L 17278.529296875 19180.474609375 C 17278.529296875 19180.474609375 17275.734375 19183.26953125 17274.072265625 19184.9296875 L 17274.0703125 19184.931640625 C 17274.0546875 19184.947265625 17274.0390625 19184.96484375 17274.0234375 19184.98046875 L 17274.01171875 19184.9921875 C 17274.009765625 19184.9921875 17274.009765625 19184.994140625 17274.009765625 19184.994140625 L 17272.873046875 19186.130859375 Z" stroke="none" fill="aqua"/>
    </g>
    <g id="Group_3070" data-name="Group 3070" transform="translate(18)">
      <text id="Face_Recognition" data-name="Face Recognition" transform="translate(1512 547)" fill="#fff" font-size="24" font-family="ArialMT, Arial" letter-spacing="0.05em"><tspan x="-102.387" y="0">Face Recognition</tspan></text>
      <g id="Group_3069" data-name="Group 3069" transform="translate(546.5 -2)">
        <g id="Ellipse_37" data-name="Ellipse 37" transform="translate(827.5 526)" stroke="aqua" stroke-width="1">
          <circle cx="14" cy="14" r="14" stroke="none"/>
          <circle cx="14" cy="14" r="13.5" fill="none"/>
        </g>
        <text id="_3" data-name="3" transform="translate(841.5 547)" fill="aqua" font-size="20" font-family="Arial-BoldMT, Arial" font-weight="700" letter-spacing="0.05em"><tspan x="-5.562" y="0">3</tspan></text>
      </g>
    </g>
  </g>
</svg>
