<svg xmlns="http://www.w3.org/2000/svg" width="38.126" height="22.24" viewBox="0 0 38.126 22.24">
  <g transform="translate(-4.5 -9)">
    <path d="M17.209,29.652A1.589,1.589,0,0,1,18.8,28.063h9.532a1.589,1.589,0,1,1,0,3.177H18.8A1.589,1.589,0,0,1,17.209,29.652ZM10.854,20.12a1.589,1.589,0,0,1,1.589-1.589h22.24a1.589,1.589,0,1,1,0,3.177H12.443A1.589,1.589,0,0,1,10.854,20.12ZM4.5,10.589A1.589,1.589,0,0,1,6.089,9H41.038a1.589,1.589,0,0,1,0,3.177H6.089A1.589,1.589,0,0,1,4.5,10.589Z" transform="translate(0 0)" fill="currentColor" fill-rule="evenodd" stroke="none"/>
  </g>
</svg>
