<svg xmlns="http://www.w3.org/2000/svg" width="52" height="52" viewBox="0 0 52 52">
  <g id="Group_3109" data-name="Group 3109" transform="translate(-416 -420)">
    <circle id="Ellipse_751" data-name="Ellipse 751" cx="26" cy="26" r="26" transform="translate(416 420)" fill="none"/>
    <g id="Icon_ionic-logo-googleplus" data-name="Icon ionic-logo-googleplus" transform="translate(427 429.91)">
      <path id="Path_1636" data-name="Path 1636" d="M18.645,14.619l-.094-.41H9.375v3.756h5.314a4.758,4.758,0,0,1-4.928,3.727,5.619,5.619,0,0,1-4-1.482,5.691,5.691,0,0,1-1.693-4.125,5.7,5.7,0,0,1,1.617-4.078,5.527,5.527,0,0,1,4.025-1.488,5.072,5.072,0,0,1,3.4,1.236l2.813-2.795a9.522,9.522,0,0,0-6.311-2.42h0a9.716,9.716,0,0,0-6.9,2.8A9.725,9.725,0,0,0,0,16.09a9.611,9.611,0,0,0,2.613,6.639,9.984,9.984,0,0,0,7.2,2.912,8.886,8.886,0,0,0,6.463-2.713,9.515,9.515,0,0,0,2.484-6.6A10.984,10.984,0,0,0,18.645,14.619Z" fill="#fff"/>
      <path id="Path_1637" data-name="Path 1637" d="M34.184,15.082h-3.34v-3.34h-2.4v3.34H25.1v2.4h3.34v3.34h2.4v-3.34h3.34Z" transform="translate(-4.184 -0.867)" fill="#fff"/>
    </g>
  </g>
</svg>
