<svg xmlns="http://www.w3.org/2000/svg" width="25.475" height="26" viewBox="0 0 25.475 26">
  <path d="M13,11.138H25.272a12.307,12.307,0,0,1,.2,2.167,13.711,13.711,0,0,1-1.54,6.559,11.123,11.123,0,0,1-4.392,4.511A12.979,12.979,0,0,1,13,26a12.779,12.779,0,0,1-5.061-1.024,12.742,12.742,0,0,1-6.915-6.915,13.019,13.019,0,0,1,0-10.123A12.742,12.742,0,0,1,7.939,1.024,12.779,12.779,0,0,1,13,0a12.318,12.318,0,0,1,8.717,3.4L18.18,6.8A7.156,7.156,0,0,0,13,4.79a7.77,7.77,0,0,0-4.037,1.1A8.223,8.223,0,0,0,4.943,13a8.223,8.223,0,0,0,4.02,7.11A7.765,7.765,0,0,0,13,21.209a8.622,8.622,0,0,0,2.708-.407,6.849,6.849,0,0,0,2.032-1.015A7.317,7.317,0,0,0,19.128,18.4,6.5,6.5,0,0,0,20,16.927a6.178,6.178,0,0,0,.381-1.32H13Z"/>
</svg>
