<svg xmlns="http://www.w3.org/2000/svg" width="18" height="18" viewBox="0 0 18 18">
  <g id="Group_3061" data-name="Group 3061" transform="translate(-184 -4)">
    <rect id="Rectangle_2725" data-name="Rectangle 2725" width="18" height="18" transform="translate(184 4)" fill="none"/>
    <path id="Path_1601" data-name="Path 1601" d="M14.5,7.943,13,6.231l.209-2.264L11,3.464,9.836,1.5,7.75,2.4,5.664,1.5,4.5,3.458l-2.215.5L2.5,6.225,1,7.943,2.5,9.655l-.209,2.27,2.215.5,1.16,1.958,2.086-.9,2.086.9L11,12.423l2.215-.5L13,9.655Zm-7.922,2.9L4.246,8.5l.908-.908,1.424,1.43,3.59-3.6.908.908Z" transform="translate(185.25 5.057)" fill="lime"/>
  </g>
</svg>
