<svg xmlns="http://www.w3.org/2000/svg" width="40" height="40" viewBox="0 0 40 40">
  <g id="Group_3119" data-name="Group 3119" transform="translate(-1582 -314)">
    <rect id="Rectangle_2810" data-name="Rectangle 2810" width="40" height="40" transform="translate(1582 314)" fill="lime" opacity="0"/>
    <g id="Group_3118" data-name="Group 3118" transform="translate(142.803 -636)">
      <path id="Path_1593" data-name="Path 1593" d="M0,0H24V24H0Z" transform="translate(1447.197 958)" fill="none"/>
      <path id="Icon_material-remove-red-eye" data-name="Icon material-remove-red-eye" d="M11.5,6.75a10.752,10.752,0,0,0-10,6.818,10.742,10.742,0,0,0,20,0A10.752,10.752,0,0,0,11.5,6.75Zm0,11.364a4.545,4.545,0,1,1,4.545-4.545A4.547,4.547,0,0,1,11.5,18.114Zm0-7.273a2.727,2.727,0,1,0,2.727,2.727A2.724,2.724,0,0,0,11.5,10.841Z" transform="translate(1447.697 956.432)" fill="lime"/>
    </g>
  </g>
</svg>
