<svg id="bx-like" xmlns="http://www.w3.org/2000/svg" width="25.263" height="24" viewBox="0 0 25.263 24">
  <path id="bx-like-2" data-name="bx-like" d="M25.737,10.579H18.648l1.418-4.253A2.528,2.528,0,0,0,17.668,3H15.632a1.265,1.265,0,0,0-.971.455L8.723,10.579h-3.2A2.528,2.528,0,0,0,3,13.105V24.474A2.528,2.528,0,0,0,5.526,27H22.335A2.539,2.539,0,0,0,24.7,25.36l3.483-9.286a1.263,1.263,0,0,0,.08-.443V13.105A2.528,2.528,0,0,0,25.737,10.579ZM5.526,13.105H8.053V24.474H5.526Zm20.211,2.3-3.4,9.071H10.579V12.3l5.644-6.773H17.67L15.7,11.441a1.261,1.261,0,0,0,1.2,1.664h8.842Z" transform="translate(-3 -3)" fill="currentColor"/>
</svg>
