<svg xmlns="http://www.w3.org/2000/svg" width="35.999" height="30.858" viewBox="0 0 35.999 30.858">
  <path d="M18,30.857a1.2,1.2,0,0,1-.884-.362L4.58,18.4a6.656,6.656,0,0,1-.552-.522q-.351-.361-1.115-1.316A17.741,17.741,0,0,1,1.547,14.6,12.21,12.21,0,0,1,.472,12.174,8.767,8.767,0,0,1,0,9.4,9.215,9.215,0,0,1,2.551,2.491,9.664,9.664,0,0,1,9.6,0a8,8,0,0,1,2.541.432A10.319,10.319,0,0,1,14.555,1.6q1.116.733,1.918,1.376A18.929,18.929,0,0,1,18,4.339a18.485,18.485,0,0,1,1.527-1.366q.8-.643,1.919-1.376A10.293,10.293,0,0,1,23.857.432,8,8,0,0,1,26.4,0a9.662,9.662,0,0,1,7.051,2.491A9.215,9.215,0,0,1,36,9.4q0,4.44-4.6,9.04L18.883,30.5a1.2,1.2,0,0,1-.884.362Z" fill="currentColor"/>
</svg>
