<svg xmlns="http://www.w3.org/2000/svg" width="33.881" height="30.192" viewBox="0 0 33.881 30.192">
  <path d="M31.86,5.556a9,9,0,0,0-12.733,0l-1.091,1.1-1.082-1.1-.007-.007a9,9,0,0,0-12.728,0l-.486.486a9,9,0,0,0,0,12.728L16.556,31.593,18,33.11l.035-.035.037.037,1.357-1.431L32.346,18.769a9.01,9.01,0,0,0,0-12.728ZM30.755,17.178,18.04,29.893,5.325,17.178a6.75,6.75,0,0,1,0-9.546l.486-.486a6.75,6.75,0,0,1,9.542,0l2.678,2.727,2.691-2.724a6.75,6.75,0,0,1,9.546,0l.486.486a6.758,6.758,0,0,1,0,9.546Z" transform="translate(-1.097 -2.92)" fill="currentColor" stroke="none"/>
</svg>
