<svg id="exclamation-circle" xmlns="http://www.w3.org/2000/svg" width="26" height="26" viewBox="0 0 26 26">
  <path id="Path_900" d="M13,24.375A11.375,11.375,0,1,0,1.625,13,11.375,11.375,0,0,0,13,24.375ZM13,26A13,13,0,1,0,0,13,13,13,0,0,0,13,26Z" fill="#fff" fill-rule="evenodd"/>
  <path id="Path_901" d="M15.755,20.373A1.625,1.625,0,1,1,17.38,22a1.625,1.625,0,0,1-1.625-1.625Zm.159-9.758a1.47,1.47,0,1,1,2.925,0l-.568,5.7a.9.9,0,0,1-1.788,0Z" transform="translate(-4.376 -2.498)" fill="#fff"/>
</svg>
