<svg id="litecoin-ltc-logo" xmlns="http://www.w3.org/2000/svg" width="16" height="16" viewBox="0 0 16 16">
  <circle id="Ellipse_146" data-name="Ellipse 146" cx="7.134" cy="7.134" r="7.134" transform="translate(0.866 0.866)" fill="#fff"/>
  <path id="Path_948" data-name="Path 948" d="M8,0a8,8,0,1,0,8,8h0A7.977,7.977,0,0,0,8.046,0Zm.136,8.271L7.3,11.08h4.455a.225.225,0,0,1,.232.217v.074L11.6,12.707a.289.289,0,0,1-.291.213H4.494L5.637,9.027l-1.278.387.291-.891,1.278-.387L7.535,2.673a.292.292,0,0,1,.291-.213H9.55a.225.225,0,0,1,.232.217v.074L8.426,7.361,9.7,6.973l-.271.93Z" fill="#345d9d"/>
</svg>
