<svg xmlns="http://www.w3.org/2000/svg" width="32" height="32" viewBox="0 0 32 32">
  <path id="logo-linkedin" d="M31.691,2.25H4.985A2.611,2.611,0,0,0,2.25,4.742V31.508A2.816,2.816,0,0,0,4.985,34.25h26.7a2.673,2.673,0,0,0,2.567-2.742V4.742A2.454,2.454,0,0,0,31.691,2.25ZM12.17,28.924H7.585V14.67H12.17ZM10.036,12.5H10a2.353,2.353,0,0,1-2.417-2.459,2.367,2.367,0,0,1,2.475-2.458,2.361,2.361,0,0,1,2.45,2.458A2.368,2.368,0,0,1,10.036,12.5ZM28.924,28.924H24.339V21.13c0-1.867-.667-3.143-2.325-3.143a2.507,2.507,0,0,0-2.351,1.692A3.089,3.089,0,0,0,19.5,20.8v8.119H14.92V14.67H19.5v1.984a4.644,4.644,0,0,1,4.135-2.317c3.009,0,5.286,1.984,5.286,6.26Z" transform="translate(-2.25 -2.25)" fill="#fff"/>
</svg>
