<svg xmlns="http://www.w3.org/2000/svg" width="168" height="54" viewBox="0 0 168 54">
  <path id="Union_2" data-name="Union 2" d="M0,54V10.658H3.53V7.105H7.059v3.553h36V54Zm39.529-3.552V14.21h-36V50.447Zm3.53,0V46.894h3.529v3.553Zm3.529-3.553V43.342h3.53v3.552Zm108-2.842V40.5h9.883v3.553Zm-26.823,0V40.5H144v3.553Zm-19.059,0V40.5h-3.529V36.947h3.529V40.5h9.177v3.553Zm-23.294,0V40.5h9.177v3.553ZM72,44.053V24.158H69.176V20.605h6.353V44.053Zm-6.353,0V24.158H62.824V44.053h-3.53V20.605h6.353v3.553h3.53V44.053Zm-49.411,0V40.5h9.882v3.553Zm-3.53,0V20.605h3.53V44.053Zm37.412-.71V7.105h-3.53V3.553h-36V0H53.647V43.342ZM164.471,40.5V36.947H168V40.5Zm-13.412,0V24.158h3.529V40.5Zm-16.941,0V24.158h-6.353V20.605H144v3.553h-6.353V40.5Zm-16.235,0V34.1h-9.177V30.553h9.177V34.1h3.529V40.5Zm-23.294,0V20.605h3.529V40.5Zm-12.706,0V20.605h3.529V40.5Zm-55.765,0V24.158H16.236V20.605h9.882v3.553h3.53V40.5Zm79.059-9.947V24.158h3.529v6.395Zm59.294-2.842V24.158H168V27.71Zm-46.588,0V24.158h3.529V27.71Zm36.705-3.552V20.605h9.883v3.553Zm-45.882,0V20.605h9.177v3.553Zm-65.647-13.5V7.105h3.529v3.553Zm-36-3.553V3.553h3.53V7.105Z" fill="#f0f"/>
</svg>
