<svg xmlns="http://www.w3.org/2000/svg" width="52" height="52" viewBox="0 0 52 52">
  <g id="Group_3105" data-name="Group 3105" transform="translate(-416 -420)">
    <circle id="Ellipse_751" data-name="Ellipse 751" cx="26" cy="26" r="26" transform="translate(416 420)" fill="none"/>
    <path id="Icon_material-phone-iphone" data-name="Icon material-phone-iphone" d="M21.818,1.5H10.909A3.41,3.41,0,0,0,7.5,4.909V28.091A3.41,3.41,0,0,0,10.909,31.5H21.818a3.41,3.41,0,0,0,3.409-3.409V4.909A3.41,3.41,0,0,0,21.818,1.5ZM16.364,30.136a2.045,2.045,0,1,1,2.045-2.045A2.043,2.043,0,0,1,16.364,30.136ZM22.5,24.682H10.227V5.591H22.5Z" transform="translate(425.636 429.5)" fill="#fff"/>
  </g>
</svg>
