<svg width="54" height="54" viewBox="0 0 54 54" fill="none" xmlns="http://www.w3.org/2000/svg">
<path d="M36.8327 51.2348H36.7877C35.7001 51.2404 34.6401 50.8923 33.7675 50.243C32.895 49.5937 32.2571 48.6782 31.9502 47.6348L27.7877 34.2473C27.2252 32.4023 27.6977 30.4223 29.0702 29.0948C30.4202 27.7673 32.3777 27.2723 34.1777 27.8348L47.5877 31.9973C49.7477 32.6723 51.1652 34.5623 51.1877 36.8348C51.2102 39.0848 49.8377 40.9973 47.6777 41.7173L44.0102 42.9548C43.4927 43.1348 43.0877 43.5173 42.9302 44.0348L41.6702 47.7248C40.9727 49.8623 39.0827 51.2348 36.8327 51.2348ZM32.6477 30.9848C32.0402 30.9848 31.6352 31.3223 31.4552 31.4798C30.9827 31.9523 30.8252 32.6048 31.0277 33.2573L35.1902 46.6448C35.5502 47.7923 36.5402 47.8373 36.8552 47.8598C37.1702 47.8598 38.1377 47.7698 38.4977 46.6673L39.7577 42.9773C40.2527 41.4698 41.4677 40.2773 42.9752 39.7598L46.6427 38.5223C47.7677 38.1623 47.8352 37.1723 47.8352 36.8798C47.8352 36.5873 47.7452 35.5973 46.6202 35.2373L33.2102 31.0748C33.0282 31.017 32.8387 30.9867 32.6477 30.9848Z" fill="#BDBDBD"/>
<path d="M27 51.1875C13.6575 51.1875 2.8125 40.3425 2.8125 27C2.8125 13.6575 13.6575 2.8125 27 2.8125C40.3425 2.8125 51.1875 13.6575 51.1875 27C51.1875 27.9225 50.4225 28.6875 49.5 28.6875C48.5775 28.6875 47.8125 27.9225 47.8125 27C47.8125 15.525 38.475 6.1875 27 6.1875C15.525 6.1875 6.1875 15.525 6.1875 27C6.1875 38.475 15.525 47.8125 27 47.8125C27.9225 47.8125 28.6875 48.5775 28.6875 49.5C28.6875 50.4225 27.9225 51.1875 27 51.1875Z" fill="#BDBDBD"/>
</svg>
