<svg xmlns="http://www.w3.org/2000/svg" width="31.501" height="31.501" viewBox="0 0 31.501 31.501">
  <g id="newspaper-sharp" transform="translate(-2.249 -2.25)">
    <path id="Path_870" data-name="Path 870" d="M7.875,7.875h4.5A1.125,1.125,0,0,1,13.5,9v4.5a1.125,1.125,0,0,1-1.125,1.125h-4.5A1.125,1.125,0,0,1,6.75,13.5V9A1.125,1.125,0,0,1,7.875,7.875Z" fill="none"/>
    <path id="Path_871" data-name="Path 871" d="M32.906,7.875H29.25V29.25a2.25,2.25,0,0,0,4.5,0V8.719a.844.844,0,0,0-.844-.844Z" fill="currentColor"/>
    <path id="Subtraction_1" data-name="Subtraction 1" d="M14176.295-14066.249h-24.107a3.943,3.943,0,0,1-3.938-3.938v-26.719a.845.845,0,0,1,.844-.844h23.064a.845.845,0,0,1,.844.844v26.157a4.508,4.508,0,0,0,3.315,4.34.081.081,0,0,1,.061.089A.078.078,0,0,1,14176.295-14066.249Zm-21.955-12.164a4.472,4.472,0,0,0,1.316,3.027,6.128,6.128,0,0,0,3.109,1.573v2.575h3.59v-2.575a5.88,5.88,0,0,0,3-1.405,3.723,3.723,0,0,0,1.148-2.857,4.077,4.077,0,0,0-1.516-3.419,10.706,10.706,0,0,0-4.091-1.8,8.9,8.9,0,0,1-2.8-1.148,1.738,1.738,0,0,1-.786-1.427,1.905,1.905,0,0,1,.868-1.626,4.057,4.057,0,0,1,2.384-.619c1.9,0,2.9.849,2.971,2.522h2.633a4.736,4.736,0,0,0-1.035-2.857,4.97,4.97,0,0,0-2.775-1.683v-2.637h-3.59v2.58a6.03,6.03,0,0,0-3.023,1.54,3.763,3.763,0,0,0-1.178,2.779c0,2.379,1.886,4.038,5.6,4.931a6.452,6.452,0,0,1,2.832,1.234,2.277,2.277,0,0,1,.758,1.684,1.981,1.981,0,0,1-.729,1.455,3.63,3.63,0,0,1-2.466.672,4.485,4.485,0,0,1-2.581-.63,2.456,2.456,0,0,1-1.009-1.893Z" transform="translate(-14146 14100)" fill="currentColor"/>
  </g>
</svg>
