<svg xmlns="http://www.w3.org/2000/svg" width="36" height="27" viewBox="0 0 36 27">
  <g id="credit-card-2-back-fill" transform="translate(0 -4.5)">
    <path id="Path_867" data-name="Path 867" d="M0,9A4.5,4.5,0,0,1,4.5,4.5h27A4.5,4.5,0,0,1,36,9V20.25H0Zm25.875,2.25a1.125,1.125,0,0,0-1.125,1.125v2.25a1.125,1.125,0,0,0,1.125,1.125h4.5A1.125,1.125,0,0,0,31.5,14.625v-2.25a1.125,1.125,0,0,0-1.125-1.125Z" fill="currentColor" fill-rule="evenodd"/>
    <path id="Path_868" data-name="Path 868" d="M0,24.75V27a4.5,4.5,0,0,0,4.5,4.5h27A4.5,4.5,0,0,0,36,27V24.75Z" fill="currentColor"/>
  </g>
</svg>
