<svg xmlns="http://www.w3.org/2000/svg" width="26.271" height="31" viewBox="0 0 26.271 31">
  <path d="M26.3,11.175a9.171,9.171,0,0,1-.069,3.529q-1.505,7.681-9.774,7.681H15.7a1.128,1.128,0,0,0-.761.285,1.254,1.254,0,0,0-.415.735l-.069.329L13.5,29.72l-.034.259a1.24,1.24,0,0,1-.424.735,1.156,1.156,0,0,1-.772.285H7.93a.691.691,0,0,1-.571-.259.778.778,0,0,1-.156-.623q.156-.969.458-2.906t.458-2.906l.467-2.9.467-2.9a.668.668,0,0,1,.744-.64h2.266a17.623,17.623,0,0,0,4.083-.363,10.388,10.388,0,0,0,4.965-2.491,10.394,10.394,0,0,0,2.682-4.256,15.165,15.165,0,0,0,.605-2.3.271.271,0,0,1,.043-.13.06.06,0,0,1,.06-.017.355.355,0,0,1,.1.06,4.343,4.343,0,0,1,1.7,2.8ZM23.326,6.3a12.253,12.253,0,0,1-.8,4.083,8.4,8.4,0,0,1-5.224,5.449,13.582,13.582,0,0,1-4.36.727q0,.017-1.557.017l-1.557-.017a1.859,1.859,0,0,0-2.042,1.661q-.034.139-1.471,9.168a.18.18,0,0,1-.208.173H1.01a.8.8,0,0,1-.631-.285.8.8,0,0,1-.2-.667L4.193,1.159a1.353,1.353,0,0,1,.475-.83A1.347,1.347,0,0,1,5.56,0H15.9a9.111,9.111,0,0,1,1.687.225A11.538,11.538,0,0,1,19.52.778a5.867,5.867,0,0,1,2.829,2.128A5.828,5.828,0,0,1,23.326,6.3Z" transform="translate(-0.171)" fill="currentColor"/>
</svg>
