<svg id="Component_72_2" data-name="Component 72 – 2" xmlns="http://www.w3.org/2000/svg" width="25.6" height="32" viewBox="0 0 25.6 32">
  <g id="Group_823" data-name="Group 823" transform="translate(-869.93 -262.761)" opacity="0">
    <g id="Union_9" data-name="Union 9" transform="translate(888.646 290.002) rotate(90)">
      <path d="M 3.258663415908813 11.33362102508545 L 1.469993472099304 11.33362102508545 L 1.469993472099304 6.487411022186279 L 1.469993472099304 6.201470851898193 L 1.223543524742126 6.05647087097168 L 0.9861733913421631 5.916810035705566 L 1.223453521728516 5.777270793914795 L 1.469993472099304 5.632280826568604 L 1.469993472099304 5.34627103805542 L 1.469993472099304 0.5000010132789612 L 3.258663415908813 0.5000010132789612 L 3.258663415908813 11.33362102508545 Z" stroke="none"/>
      <path d="M 2.758663415908813 10.83362102508545 L 2.758663415908813 1.000000953674316 L 1.969993472099304 1.000000953674316 L 1.969993472099304 10.83362102508545 L 2.758663415908813 10.83362102508545 M 3.758663415908813 11.83362102508545 L 0.9699934720993042 11.83362102508545 L 0.9699934720993042 6.487411022186279 L 3.496093768262654e-06 5.916700839996338 L 0.9699934720993042 5.34627103805542 L 0.9699934720993042 9.893798278426402e-07 L 3.758663415908813 9.893798278426402e-07 L 3.758663415908813 11.83362102508545 Z" stroke="none" fill="currentColor"/>
    </g>
    <text id="Download_as_PDF" data-name="Download as PDF" transform="translate(882.728 292.699)" fill="currentColor" font-size="1" font-family="SegoeUI, Segoe UI"><tspan x="-3.866" y="0">Download as PDF</tspan></text>
  </g>
  <g id="bxs-file-pdf" transform="translate(-6 -3)">
    <path id="Path_968" data-name="Path 968" d="M12.437,22.02a2.4,2.4,0,0,0-.6.058v1.885a2.177,2.177,0,0,0,.483.037c.766,0,1.238-.387,1.238-1.042,0-.586-.406-.938-1.126-.938Zm5.58.019a2.942,2.942,0,0,0-.651.058v4.176a2.61,2.61,0,0,0,.5.029,1.977,1.977,0,0,0,2.158-2.234,1.831,1.831,0,0,0-2.007-2.029Z" transform="translate(0.389 1.268)" fill="currentColor"/>
    <path id="Path_969" data-name="Path 969" d="M22,3H9.2A3.2,3.2,0,0,0,6,6.2V31.8A3.2,3.2,0,0,0,9.2,35H28.4a3.2,3.2,0,0,0,3.2-3.2V12.6ZM14.8,25.7a2.966,2.966,0,0,1-2.074.672,3.568,3.568,0,0,1-.493-.029v2.282H10.8v-6.3a12.093,12.093,0,0,1,1.95-.131,3.063,3.063,0,0,1,1.952.511,1.872,1.872,0,0,1,.682,1.477,2.056,2.056,0,0,1-.587,1.517Zm6.091,2.167a4.583,4.583,0,0,1-2.944.823,12.32,12.32,0,0,1-1.638-.1V22.332a12.715,12.715,0,0,1,1.951-.132,4.106,4.106,0,0,1,2.613.682,2.825,2.825,0,0,1,1.081,2.406,3.236,3.236,0,0,1-1.061,2.583ZM26.8,23.432H24.349V24.89H26.64v1.174H24.349v2.566H22.9V22.248h3.9ZM22,14.2H20.4v-8l8,8Z" transform="translate(0 0)" fill="currentColor"/>
  </g>
</svg>
