<svg xmlns="http://www.w3.org/2000/svg" width="40" height="39.999" viewBox="319 1263.001 40 39.999"><g data-name="Group 2759"><g data-name="Group 2763"><g data-name="Icon feather-pen-tool"><path d="m346.283 1299.185 8.902-8.902 3.815 3.815-8.902 8.902-3.815-3.815Z" stroke-linejoin="round" stroke-linecap="round" stroke-width="2.5" stroke="#0ff" fill="transparent" data-name="Path 1553"/><path d="m353.913 1291.555-1.907-9.538-18.44-4.45 4.451 18.439 9.538 1.907 6.358-6.358Z" stroke-linejoin="round" stroke-linecap="round" stroke-width="2.5" stroke="#0ff" fill="transparent" data-name="Path 1554"/><path d="m333.566 1277.566 9.647 9.647" stroke-linejoin="round" stroke-linecap="round" stroke-width="2.5" stroke="#0ff" fill="transparent" data-name="Path 1555"/><path d="M347.555 1289.012a2.543 2.543 0 1 1-5.087 0 2.543 2.543 0 0 1 5.087 0Z" stroke-linejoin="round" stroke-linecap="round" stroke-width="2.5" stroke="#0ff" fill="transparent" data-name="Path 1556"/></g><path d="M340.91 1267.502c-1.822.123-4.42 1.923-5.735 2.513-1.023.461-1.906.858-2.676.858-.794 0-.914-.57-.748-1.824.038-.282.411-2.785-1.502-2.676-.882.053-2.26.872-5.959 4.43l1.46-3.646c1.068-2.668-1.871-5.326-4.56-3.614l-1.93 1.297a.565.565 0 0 0-.173.777l.605.95a.56.56 0 0 0 .777.172l2.039-1.368c.647-.411 1.43.253 1.15.953l-3.453 8.635c-.24.594.095 1.543 1.044 1.543.292 0 .58-.113.795-.33 1.483-1.484 5.439-5.299 7.425-6.884-.077 1.002-.074 2.07.724 2.946.538.59 1.312.89 2.303.89 1.252 0 2.39-.514 3.597-1.055 1.16-.52 3.48-2.201 4.865-2.314a.564.564 0 0 0 .535-.555v-1.129a.558.558 0 0 0-.584-.57Z" fill="#0ff" fill-rule="evenodd" data-name="Icon awesome-signature"/></g></g></svg>