<svg id="Component_71_2" data-name="Component 71 – 2" xmlns="http://www.w3.org/2000/svg" width="35.583" height="32.001" viewBox="0 0 35.583 32.001">
  <g id="Group_822" data-name="Group 822" transform="translate(-1127.469 -276.021)" opacity="0">
    <g id="Union_10" data-name="Union 10" transform="translate(1157.984 290) rotate(90)">
      <path d="M 15.54272270202637 24.9462947845459 L 4.640622138977051 24.9462947845459 L 4.640622138977051 15.15869426727295 L 4.640622138977051 14.8727445602417 L 4.394162178039551 14.72774410247803 L 0.9862286448478699 12.72276401519775 L 4.394062519073486 10.7188549041748 L 4.640622138977051 10.57386493682861 L 4.640622138977051 10.28784465789795 L 4.640622138977051 0.5000045299530029 L 15.54272270202637 0.5000045299530029 L 15.54272270202637 24.9462947845459 Z" stroke="none"/>
      <path d="M 15.04272270202637 24.4462947845459 L 15.04272270202637 1.000004529953003 L 5.140622138977051 1.000004529953003 L 5.140622138977051 10.85989475250244 L 1.972451567649841 12.72287178039551 L 5.140622138977051 14.58679485321045 L 5.140622138977051 24.4462947845459 L 15.04272270202637 24.4462947845459 M 16.04272270202637 25.4462947845459 L 4.140622138977051 25.4462947845459 L 4.140622138977051 15.15869426727295 L 2.30468754125468e-06 12.72265434265137 L 4.140622138977051 10.28784465789795 L 4.140622138977051 4.531249942374416e-06 L 16.04272270202637 4.531249942374416e-06 L 16.04272270202637 25.4462947845459 Z" stroke="none" fill="aqua"/>
    </g>
    <text id="Print" transform="translate(1144.862 301.245)" fill="aqua" font-size="4" font-family="SegoeUI, Segoe UI"><tspan x="-4.109" y="0">Print</tspan></text>
  </g>
  <path id="print-2" data-name="print" d="M30.25,8.917A5.193,5.193,0,0,1,34,10.459a5.087,5.087,0,0,1,1.583,3.792V24.918H28.416V32H7.083V24.918H0V14.25a5.154,5.154,0,0,1,1.542-3.792A5.15,5.15,0,0,1,5.333,8.917Zm-5.333,19.5V19.583H10.667v8.833h14.25ZM30.209,16a1.768,1.768,0,0,0,1.25-3.042,1.768,1.768,0,1,0-2.5,2.5A1.717,1.717,0,0,0,30.209,16ZM28.417,0V7.083H7.083V0H28.416Z" fill="currentColor"/>
</svg>
