<svg xmlns="http://www.w3.org/2000/svg" width="24" height="24" viewBox="0 0 24 24">
  <path id="refresh" d="M23.609,14.5a.273.273,0,0,1-.015.109A12.145,12.145,0,0,1,19.407,21.4,11.451,11.451,0,0,1,11.937,24a11.705,11.705,0,0,1-4.414-.859,11.926,11.926,0,0,1-3.8-2.453L1.7,22.7A.961.961,0,0,1,1,23a.961.961,0,0,1-.7-.3A.961.961,0,0,1,0,22V15a.963.963,0,0,1,.3-.7A.958.958,0,0,1,1,14H8a.995.995,0,0,1,.7,1.7L6.563,17.844a8.063,8.063,0,0,0,2.515,1.594,7.956,7.956,0,0,0,6.828-.453,7.878,7.878,0,0,0,2.906-2.8,18.818,18.818,0,0,0,.828-1.828A.469.469,0,0,1,20.109,14h3a.479.479,0,0,1,.351.149.484.484,0,0,1,.149.351ZM24,2V9a1.013,1.013,0,0,1-1,1H16a.995.995,0,0,1-.7-1.7l2.156-2.156A7.761,7.761,0,0,0,12,4,7.969,7.969,0,0,0,5.187,7.813a18.818,18.818,0,0,0-.828,1.828A.469.469,0,0,1,3.891,10H.781A.479.479,0,0,1,.43,9.851.484.484,0,0,1,.281,9.5V9.391A12.188,12.188,0,0,1,4.5,2.6,11.535,11.535,0,0,1,12,0a11.787,11.787,0,0,1,4.437.867,12.111,12.111,0,0,1,3.828,2.445L22.3,1.3a.982.982,0,0,1,1.407,0A.961.961,0,0,1,24,2Z" fill="currentColor"/>
</svg>
