<svg xmlns="http://www.w3.org/2000/svg" width="36" height="36.875" viewBox="0 0 36 36.875">
  <path d="M31.681,20.5l3.9,3.03a.916.916,0,0,1,.26,1.212l-3.722,6.406a.757.757,0,0,1-1.125.346L26.4,29.68A17.465,17.465,0,0,1,23.286,31.5l-.693,4.848a.826.826,0,0,1-.952.779H14.283a.891.891,0,0,1-.952-.779L12.638,31.5A14.2,14.2,0,0,1,9.522,29.68L4.934,31.5a.843.843,0,0,1-1.125-.346L.088,24.745a.916.916,0,0,1,.26-1.212l3.9-3.03q-.086-1.039-.086-1.818t.086-1.818l-3.9-3.029a.916.916,0,0,1-.26-1.212L3.809,6.221a.781.781,0,0,1,1.125-.346L9.522,7.693a17.465,17.465,0,0,1,3.116-1.818l.693-4.848a.891.891,0,0,1,.952-.779H21.64a.827.827,0,0,1,.952.779l.693,4.848A14.2,14.2,0,0,1,26.4,7.693L30.99,5.876a.843.843,0,0,1,1.125.346l3.722,6.406a.916.916,0,0,1-.26,1.212l-3.9,3.03a11.218,11.218,0,0,1,.173,1.818A11.218,11.218,0,0,1,31.681,20.5ZM17.962,25.179a6.2,6.2,0,0,0,4.544-1.9,6.253,6.253,0,0,0,1.9-4.588,6.253,6.253,0,0,0-1.9-4.588,6.375,6.375,0,0,0-9.089,0,6.253,6.253,0,0,0-1.9,4.588,6.253,6.253,0,0,0,1.9,4.588A6.2,6.2,0,0,0,17.962,25.179Z" transform="translate(0.038 -0.249)" fill="currentColor"/>
</svg>
