<svg xmlns="http://www.w3.org/2000/svg" width="29.871" height="33.19" viewBox="0 0 29.871 33.19">
  <path d="M7.819,36.19H31.052a3.322,3.322,0,0,0,3.319-3.319V14.616a1.66,1.66,0,0,0-1.66-1.659H27.733V11.3a8.3,8.3,0,1,0-16.595,0v1.66H6.16A1.659,1.659,0,0,0,4.5,14.616V32.871A3.322,3.322,0,0,0,7.819,36.19ZM14.457,11.3a4.979,4.979,0,0,1,9.957,0v1.66H14.457ZM7.819,16.276h3.319V19.6h3.319V16.276h9.957V19.6h3.319V16.276h3.319l0,16.6H7.819Z" transform="translate(-4.5 -3)" fill="currentColor" stroke="none"/>
</svg>
