<svg xmlns="http://www.w3.org/2000/svg" width="199.999" height="200" viewBox="860 300 199.999 200"><g data-name="Group 2796"><g data-name="Group 35"><path d="m1058.295 372.574-95.744-71.723a4.252 4.252 0 0 0-5.103 0l-95.742 71.72a4.258 4.258 0 0 0-1.704 3.407v.002H860v119.765a4.256 4.256 0 0 0 4.255 4.255h191.488a4.255 4.255 0 0 0 4.255-4.256V375.98c0-1.34-.63-2.601-1.703-3.405Zm-98.296-63 88.647 66.406-29.488 22.089v-40.492H900.843v40.49l-29.488-22.09 88.644-66.403Zm50.648 94.87L960 442.383l-50.646-37.941v-38.356h101.294v38.356ZM868.51 491.488V384.48l88.938 66.626c2.196 1.536 4.347.567 5.103 0l88.937-66.622V491.49H868.51Z" fill="#0ff" fill-rule="evenodd" data-name="Path 1023"/><path d="m1058.295 372.574-95.744-71.723a4.252 4.252 0 0 0-5.103 0l-95.742 71.72a4.258 4.258 0 0 0-1.704 3.407v.002H860v119.765a4.256 4.256 0 0 0 4.255 4.255h191.488a4.255 4.255 0 0 0 4.255-4.256V375.98c0-1.34-.63-2.601-1.703-3.405Zm-98.296-63 88.647 66.406-29.488 22.089v-40.492H900.843v40.49l-29.488-22.09 88.644-66.403Zm50.648 94.87L960 442.383l-50.646-37.941v-38.356h101.294v38.356ZM868.51 491.488V384.48l88.938 66.626c2.196 1.536 4.347.567 5.103 0l88.937-66.622V491.49H868.51Z" fill="#0ff" fill-rule="evenodd" data-name="Path 1023"/></g><g data-name="Group 2795"><path d="m942.437 381.937-12.375 12.292 29.959 29.917 29.916-29.917-12.333-12.333v-.042h-35.208Z" fill="#ff0" fill-rule="evenodd" data-name="Icon simple-rubygems"/><path d="m942.437 381.937-12.375 12.292 29.959 29.917 29.916-29.917-12.333-12.333v-.042h-35.208Z" fill="#ff0" fill-rule="evenodd" data-name="Icon simple-rubygems"/></g></g></svg>