<svg xmlns="http://www.w3.org/2000/svg" width="16.689" height="16.121" viewBox="0 0 16.689 16.121">
  <g transform="translate(-1.6 -0.514)">
    <path d="M17.716,10.125,16.731,19.6a1.1,1.1,0,0,1-1.091.971H7.7A1.1,1.1,0,0,1,6.61,19.6l-.985-9.472" transform="translate(-1.726 -4.583)" fill="none" stroke="currentColor" stroke-linecap="round" stroke-linejoin="round" stroke-width="1.3"/>
    <path d="M2.8,4.5h14.29a.55.55,0,0,1,.55.55V6.7a.55.55,0,0,1-.55.55H2.8a.55.55,0,0,1-.55-.55V5.05A.55.55,0,0,1,2.8,4.5Z" transform="translate(0 -1.706)" fill="none" stroke="currentColor" stroke-linecap="round" stroke-linejoin="round" stroke-width="1.3"/>
    <path d="M21.938,16.875V21.09" transform="translate(-10.558 -8.036)" fill="none" stroke="currentColor" stroke-linecap="round" stroke-linejoin="round" stroke-width="1.3"/>
    <path d="M14.063,21.112V16.875" transform="translate(-5.553 -8.036)" fill="none" stroke="currentColor" stroke-linecap="round" stroke-linejoin="round" stroke-width="1.3"/>
    <path d="M16.67,16.875H14.063" transform="translate(-5.422 -15.711)" fill="none" stroke="currentColor" stroke-linecap="round" stroke-linejoin="round" stroke-width="1.3"/>
  </g>
</svg>
