<svg xmlns="http://www.w3.org/2000/svg" width="32.006" height="26" viewBox="0 0 32.006 26">
  <path id="twitter-bird" d="M32.006,3.08A13.3,13.3,0,0,1,28.726,6.47q.02.376.02.85a18.861,18.861,0,0,1-3.113,10.325,19.949,19.949,0,0,1-3.759,4.276,16.756,16.756,0,0,1-5.244,2.97A19.153,19.153,0,0,1,10.066,26,18.277,18.277,0,0,1,0,23.049a14.2,14.2,0,0,0,1.566.091,12.874,12.874,0,0,0,8.156-2.813,6.371,6.371,0,0,1-3.813-1.31,6.454,6.454,0,0,1-2.318-3.249,6.564,6.564,0,0,0,2.965-.11,6.4,6.4,0,0,1-3.77-2.263,6.353,6.353,0,0,1-1.5-4.173V9.14a6.48,6.48,0,0,0,2.975.821,6.523,6.523,0,0,1-2.134-2.34A6.407,6.407,0,0,1,1.342,4.5a6.451,6.451,0,0,1,.888-3.3A18.7,18.7,0,0,0,8.217,6.046a18.247,18.247,0,0,0,7.545,2.015,6.421,6.421,0,0,1-.172-1.494,6.325,6.325,0,0,1,1.924-4.642,6.569,6.569,0,0,1,9.435.147A13.078,13.078,0,0,0,31.118.477a6.348,6.348,0,0,1-2.884,3.634A13.123,13.123,0,0,0,32.006,3.08Z" fill="currentColor"/>
</svg>
