<svg id="usd-coin-usdc-logo" xmlns="http://www.w3.org/2000/svg" width="18.001" height="18.001" viewBox="0 0 18.001 18.001">
  <path id="Path_927" data-name="Path 927" d="M9,18A9,9,0,1,0,0,9,8.979,8.979,0,0,0,9,18Z" fill="#2775ca"/>
  <path id="Path_928" data-name="Path 928" d="M721.7,514.18c0-1.312-.788-1.763-2.363-1.95-1.125-.15-1.35-.45-1.35-.975s.375-.862,1.125-.862a1.11,1.11,0,0,1,1.238.788.282.282,0,0,0,.263.188h.6a.256.256,0,0,0,.263-.262v-.038a1.874,1.874,0,0,0-1.688-1.538v-.9c0-.15-.112-.263-.3-.3h-.563c-.15,0-.263.113-.3.3v.863a1.912,1.912,0,0,0-1.838,1.838c0,1.238.75,1.725,2.325,1.913,1.05.187,1.388.412,1.388,1.013s-.525,1.013-1.238,1.013c-.975,0-1.313-.413-1.425-.975a.274.274,0,0,0-.263-.225h-.638a.256.256,0,0,0-.262.263v.038a2.1,2.1,0,0,0,1.988,1.8v.9c0,.15.112.263.3.3h.563c.15,0,.263-.113.3-.3v-.9A2.054,2.054,0,0,0,721.7,514.18Z" transform="translate(-710.22 -503.755)" fill="#fff"/>
  <path id="Path_929" data-name="Path 929" d="M252.822,303.408a5.612,5.612,0,0,1,0-10.538.376.376,0,0,0,.225-.375v-.525a.285.285,0,0,0-.225-.3.226.226,0,0,0-.15.037,6.749,6.749,0,0,0,0,12.863.228.228,0,0,0,.338-.15c.038-.037.038-.075.038-.15v-.525A.5.5,0,0,0,252.822,303.408Zm3.975-11.7a.228.228,0,0,0-.338.15c-.038.038-.038.075-.038.15v.525a.5.5,0,0,0,.225.375,5.612,5.612,0,0,1,0,10.538.376.376,0,0,0-.225.375v.525a.285.285,0,0,0,.225.3.226.226,0,0,0,.15-.037,6.777,6.777,0,0,0,0-12.9Z" transform="translate(-245.734 -289.045)" fill="#fff"/>
</svg>
