<svg xmlns="http://www.w3.org/2000/svg" width="20.691" height="18" viewBox="0 0 20.691 18">
  <g id="tether-usdt-logo" transform="translate(-0.005 0)">
    <path id="Path_925" data-name="Path 925" d="M3.794.088.021,8.013a.154.154,0,0,0,.033.179l10.19,9.764a.155.155,0,0,0,.215,0l10.19-9.764a.154.154,0,0,0,.033-.179L16.908.089A.152.152,0,0,0,16.769,0H3.934a.152.152,0,0,0-.14.088h0Z" transform="translate(0 0)" fill="#50af95" fill-rule="evenodd"/>
    <path id="Path_926" data-name="Path 926" d="M71.857,46.6h0c-.073.005-.451.028-1.294.028-.671,0-1.147-.02-1.314-.028h0c-2.592-.114-4.526-.565-4.526-1.105s1.934-.991,4.526-1.106v1.762c.169.012.655.041,1.325.041.8,0,1.208-.034,1.28-.04V44.394c2.586.115,4.516.566,4.516,1.105s-1.929.99-4.516,1.1h0Zm0-2.393V42.635h3.609v-2.4H65.64v2.4h3.608v1.576c-2.933.135-5.138.716-5.138,1.412s2.206,1.276,5.138,1.412v5.054h2.608V47.033c2.926-.135,5.128-.715,5.128-1.411s-2.2-1.276-5.128-1.411h0Zm0,0Z" transform="translate(-60.197 -37.778)" fill="#fff" fill-rule="evenodd"/>
  </g>
</svg>
