<svg width="54" height="54" viewBox="0 0 54 54" fill="none" xmlns="http://www.w3.org/2000/svg">
<path d="M26.9994 28.6875C19.8669 28.6875 14.0619 22.8825 14.0619 15.75C14.0619 8.6175 19.8669 2.8125 26.9994 2.8125C34.1319 2.8125 39.9369 8.6175 39.9369 15.75C39.9369 22.8825 34.1319 28.6875 26.9994 28.6875ZM26.9994 6.1875C24.4651 6.19344 22.0363 7.20282 20.2442 8.99485C18.4522 10.7869 17.4428 13.2157 17.4369 15.75C17.4428 18.2843 18.4522 20.7131 20.2442 22.5051C22.0363 24.2972 24.4651 25.3066 26.9994 25.3125C29.5337 25.3066 31.9625 24.2972 33.7545 22.5051C35.5466 20.7131 36.5559 18.2843 36.5619 15.75C36.5559 13.2157 35.5466 10.7869 33.7545 8.99485C31.9625 7.20282 29.5337 6.19344 26.9994 6.1875ZM7.67188 51.1875C6.74937 51.1875 5.98438 50.4225 5.98438 49.5C5.98438 39.8925 15.4119 32.0625 26.9994 32.0625C29.2719 32.0625 31.4994 32.355 33.6594 32.9625C34.5594 33.21 35.0769 34.1325 34.8294 35.0325C34.5819 35.9325 33.6594 36.45 32.7594 36.2025C30.9144 35.685 28.9794 35.4375 26.9994 35.4375C17.2794 35.4375 9.35937 41.7375 9.35937 49.5C9.35937 50.4225 8.59438 51.1875 7.67188 51.1875Z" fill="#BDBDBD"/>
<path d="M40.5 51.1875C37.8604 51.1875 35.3163 50.2003 33.3675 48.42C32.58 47.745 31.8825 46.9125 31.3425 45.99C30.3525 44.37 29.8125 42.4575 29.8125 40.5C29.8125 37.6875 30.8925 35.055 32.8275 33.0525C34.8525 30.96 37.575 29.8125 40.5 29.8125C43.56 29.8125 46.4625 31.1175 48.4425 33.3675C50.2072 35.3243 51.185 37.865 51.1875 40.5C51.1875 41.355 51.075 42.21 50.85 43.02C50.625 44.0325 50.1975 45.09 49.6125 46.0125C47.745 49.2075 44.235 51.1875 40.5 51.1875ZM40.5 33.1875C39.2055 33.1844 37.9335 33.5259 36.8146 34.177C35.6958 34.8281 34.7704 35.7653 34.1336 36.8924C33.4967 38.0194 33.1714 39.2957 33.191 40.59C33.2106 41.8844 33.5744 43.1502 34.245 44.2575C34.605 44.8875 35.0775 45.45 35.6175 45.9225C36.9675 47.16 38.7 47.835 40.5 47.835C43.0425 47.835 45.45 46.485 46.755 44.3025C47.1375 43.6725 47.43 42.9525 47.5875 42.255C47.745 41.67 47.8125 41.1075 47.8125 40.5225C47.8125 38.7225 47.1375 36.99 45.9225 35.64C44.5725 34.065 42.5925 33.1875 40.5 33.1875Z" fill="#BDBDBD"/>
<path d="M43.8701 42.1425H37.1426C36.2201 42.1425 35.4551 41.3775 35.4551 40.455C35.4551 39.5325 36.2201 38.7675 37.1426 38.7675H43.8701C44.7926 38.7675 45.5576 39.5325 45.5576 40.455C45.5576 41.3775 44.7926 42.1425 43.8701 42.1425Z" fill="#BDBDBD"/>
<path d="M40.5 45.585C39.5775 45.585 38.8125 44.82 38.8125 43.8975V37.17C38.8125 36.2475 39.5775 35.4825 40.5 35.4825C41.4225 35.4825 42.1875 36.2475 42.1875 37.17V43.8975C42.1875 44.8425 41.4225 45.585 40.5 45.585Z" fill="#BDBDBD"/>
</svg>
