<svg xmlns="http://www.w3.org/2000/svg" width="109.118" height="76.721" viewBox="0 0 109.118 76.721">
  <g id="Group_457" transform="translate(-904.999 -5033)">
    <rect id="Rectangle_182" width="49" height="51" transform="translate(935 5046)" fill="#fff"/>
    <path id="youtube-play" d="M43.292,52.687,72.762,37.466,43.292,22.06ZM54.558.2Q64.787.2,74.317.474t13.972.579l4.446.242q.061,0,1.037.091a13.516,13.516,0,0,1,1.4.182q.424.091,1.431.273a8.367,8.367,0,0,1,1.737.488q.73.306,1.706.791a11.41,11.41,0,0,1,1.888,1.188A14.992,14.992,0,0,1,103.7,5.92a11.458,11.458,0,0,1,.943,1.127,20.731,20.731,0,0,1,1.767,3.561,22.961,22.961,0,0,1,1.612,6.15q.488,3.9.761,8.311t.33,6.917V42.7a128.85,128.85,0,0,1-1.1,17.658A24.382,24.382,0,0,1,106.5,66.42a15.362,15.362,0,0,1-1.949,3.743l-.852,1.037a14.351,14.351,0,0,1-1.767,1.612,10.385,10.385,0,0,1-1.888,1.158q-.973.458-1.706.761a8.7,8.7,0,0,1-1.737.488q-1,.185-1.461.273t-1.4.182q-.943.094-1,.091Q77.45,76.922,54.555,76.922q-12.6-.121-21.889-.4t-12.205-.458l-2.982-.242-2.191-.242a28.511,28.511,0,0,1-3.319-.609,18.879,18.879,0,0,1-3.107-1.279,12.126,12.126,0,0,1-3.44-2.5,11.457,11.457,0,0,1-.943-1.127,20.731,20.731,0,0,1-1.767-3.561A22.961,22.961,0,0,1,1.1,60.358q-.488-3.9-.761-8.311T0,45.137V34.42A128.848,128.848,0,0,1,1.1,16.762,24.382,24.382,0,0,1,2.621,10.7,15.362,15.362,0,0,1,4.57,6.96l.852-1.037A14.352,14.352,0,0,1,7.188,4.311,11.927,11.927,0,0,1,9.073,3.123q.97-.488,1.706-.791a8.779,8.779,0,0,1,1.737-.488q1-.185,1.431-.273t1.4-.182q.97-.094,1.037-.091Q31.666.2,54.561.2Z" transform="translate(905 5032.799)" fill="currentColor"/>
  </g>
</svg>
