<svg id="Group_653" data-name="Group 653" xmlns="http://www.w3.org/2000/svg" width="32.502" height="30.438" viewBox="0 0 32.502 30.438">
  <path id="ad-hoc-marker" d="M5.4,20.752c1.354-3.209,3.132-6.552,6.188-8.36,2.27-1.356,5.078-.521,7.161.809,3.208,1.978,5.717,4.918,8.883,6.953,1.911,1.121,4.288.2,5.681-1.348,1.681-1.96,3.6-3.807,4.589-6.268V20.2c-1.424,2.825-3.255,5.761-6.184,7.131a7.52,7.52,0,0,1-7.255-1.082c-3.041-2.043-5.282-5.193-8.586-6.843a4.4,4.4,0,0,0-5,.618C8.45,22.172,7.061,25.208,5.4,27.951Z" transform="translate(-5.4 2.488)" fill="#fff"/>
  <path id="ad-hoc-marker-2" d="M5.4,20.752c1.354-3.209,3.132-6.552,6.188-8.36,2.27-1.356,5.078-.521,7.161.809,3.208,1.978,5.717,4.918,8.883,6.953,1.911,1.121,4.288.2,5.681-1.348,1.681-1.96,3.6-3.807,4.589-6.268V20.2c-1.424,2.825-3.255,5.761-6.184,7.131a7.52,7.52,0,0,1-7.255-1.082c-3.041-2.043-5.282-5.193-8.586-6.843a4.4,4.4,0,0,0-5,.618C8.45,22.172,7.061,25.208,5.4,27.951Z" transform="translate(-5.4 -11.7)" fill="#fff"/>
</svg>
