<svg width="54" height="54" viewBox="0 0 54 54" fill="none" xmlns="http://www.w3.org/2000/svg">
<path d="M26.999 51.1875C24.3665 51.1875 21.914 50.175 20.069 48.33L5.69154 33.9525C4.78165 33.043 4.06073 31.9625 3.57031 30.7731C3.07988 29.5837 2.82966 28.309 2.83404 27.0225C2.83404 24.4125 3.84654 21.9375 5.69154 20.0925L20.069 5.71504C21.914 3.87004 24.389 2.85754 26.999 2.85754C29.609 2.85754 32.084 3.87004 33.929 5.71504L48.3065 20.0925C50.1515 21.9375 51.164 24.4125 51.164 27.0225C51.164 29.6325 50.1515 32.1075 48.3065 33.9525L33.929 48.33C32.084 50.175 29.6315 51.1875 26.999 51.1875ZM26.999 6.18754C25.2665 6.18754 23.6465 6.86254 22.454 8.05504L8.07654 22.4325C6.86154 23.6475 6.20904 25.2675 6.20904 26.9775C6.20904 28.6875 6.88404 30.33 8.07654 31.5225L22.454 45.9C24.8615 48.3075 29.1365 48.3075 31.544 45.9L45.9215 31.5225C47.1365 30.3075 47.789 28.71 47.789 26.9775C47.789 25.245 47.114 23.625 45.9215 22.4325L31.544 8.05504C30.3515 6.86254 28.7315 6.18754 26.999 6.18754Z" fill="#BDBDBD"/>
<path d="M39.9373 41.6272C39.5098 41.6272 39.0823 41.4697 38.7448 41.1322L12.8698 15.2572C12.5565 14.9393 12.3809 14.511 12.3809 14.0647C12.3809 13.6184 12.5565 13.19 12.8698 12.8722C13.5223 12.2197 14.6023 12.2197 15.2548 12.8722L41.1298 38.7472C41.7823 39.3997 41.7823 40.4797 41.1298 41.1322C40.7923 41.4697 40.3648 41.6272 39.9373 41.6272Z" fill="#BDBDBD"/>
<path d="M14.0623 41.6272C13.6348 41.6272 13.2073 41.4697 12.8698 41.1322C12.5565 40.8143 12.3809 40.386 12.3809 39.9397C12.3809 39.4934 12.5565 39.065 12.8698 38.7472L38.7448 12.8722C39.3973 12.2197 40.4773 12.2197 41.1298 12.8722C41.7823 13.5247 41.7823 14.6047 41.1298 15.2572L15.2548 41.1322C14.9173 41.4697 14.4898 41.6272 14.0623 41.6272Z" fill="#BDBDBD"/>
</svg>
