<svg xmlns="http://www.w3.org/2000/svg" width="36.002" height="25.313" viewBox="0 0 36.002 25.313">
  <path d="M14.283,17.518,24.006,12.5,14.283,7.413v10.1ZM18,.2q3.375,0,6.519.09t4.61.191L30.6.562q.02,0,.342.03a4.459,4.459,0,0,1,.462.06q.14.03.472.09A2.761,2.761,0,0,1,32.445.9q.241.1.563.261a3.764,3.764,0,0,1,.623.392,4.947,4.947,0,0,1,.583.532,3.78,3.78,0,0,1,.311.372,6.84,6.84,0,0,1,.583,1.175,7.576,7.576,0,0,1,.532,2.029q.161,1.286.251,2.742T36,10.688v3.536a42.512,42.512,0,0,1-.362,5.826,8.045,8.045,0,0,1-.5,2,5.068,5.068,0,0,1-.643,1.235l-.281.342a4.735,4.735,0,0,1-.583.532,3.427,3.427,0,0,1-.623.382q-.321.151-.563.251a2.871,2.871,0,0,1-.573.161l-.482.09q-.151.029-.462.06t-.331.03q-5.042.382-12.6.382-4.158-.04-7.222-.131T6.75,25.232l-.984-.08-.723-.08a9.407,9.407,0,0,1-1.1-.2,6.229,6.229,0,0,1-1.025-.422,4,4,0,0,1-1.135-.824,3.78,3.78,0,0,1-.311-.372,6.84,6.84,0,0,1-.583-1.175,7.576,7.576,0,0,1-.532-2.029Q.2,18.763.111,17.307T0,15.027V11.491A42.511,42.511,0,0,1,.362,5.665a8.045,8.045,0,0,1,.5-2,5.069,5.069,0,0,1,.643-1.235l.281-.342a4.735,4.735,0,0,1,.583-.532,3.935,3.935,0,0,1,.622-.392Q3.313,1,3.556.9A2.9,2.9,0,0,1,4.129.743q.33-.061.472-.09t.462-.06q.32-.031.342-.03Q10.447.2,18,.2Z" transform="translate(0.001 -0.201)" fill="currentColor"/>
</svg>
