<?xml version="1.0" encoding="UTF-8"?><svg id="a" xmlns="http://www.w3.org/2000/svg" viewBox="0 0 1080 1080"><defs><style>.d{fill:#ededed;stroke-miterlimit:10;}.d,.e{stroke:#b2b2b2;stroke-width:5px;}.f{fill:#b2b2b2;font-family:SegoeUI-Semibold, Segoe UI;font-size:69px;font-weight:700;}.e{fill:none;stroke-linecap:round;stroke-linejoin:round;}</style></defs><text class="f" transform="translate(432.69 826.05)"><tspan x="0" y="0">Oops...</tspan><tspan x="-302.04" y="82.8">There is nothing here, yet!</tspan></text><g><g><polygon class="e" points="458.27 492.3 458.09 492.3 458.09 492.33 458.09 537.68 458.09 661.83 484.28 661.83 484.28 532.34 594.54 509.86 594.54 634.14 620.73 634.14 620.73 504.52 620.73 464.6 620.73 459.17 458.27 492.3"/><path id="b" class="d" d="M619.87,627.43c4.68,17.46-10.4,36.67-33.68,42.91-23.28,6.24-45.94-2.86-50.62-20.32-4.68-17.46,10.4-36.67,33.68-42.91s45.94,2.86,50.62,20.32Z"/><path id="c" class="d" d="M483.43,655.13c4.68,17.46-10.4,36.67-33.68,42.91-23.28,6.24-45.94-2.86-50.62-20.32-4.68-17.46,10.4-36.67,33.68-42.91,23.28-6.24,45.94,2.86,50.62,20.32Z"/></g><rect class="d" x="386.58" y="427.41" width="70.65" height="24.8" rx="12.4" ry="12.4" transform="translate(434.56 -169.51) rotate(45)"/><rect class="d" x="371.36" y="473.48" width="70.65" height="24.8" rx="12.4" ry="12.4" transform="translate(462.69 -145.26) rotate(45)"/><rect class="d" x="622.77" y="396.21" width="70.65" height="24.8" rx="12.4" ry="12.4" transform="translate(1412.37 232.2) rotate(135)"/><rect class="d" x="637.99" y="442.29" width="70.65" height="24.8" rx="12.4" ry="12.4" transform="translate(1470.94 300.1) rotate(135)"/></g></svg>