<?xml version="1.0" encoding="UTF-8"?><svg id="a" xmlns="http://www.w3.org/2000/svg" viewBox="0 0 1080 1080"><defs><style>.b{fill:#ededed;stroke-miterlimit:10;}.b,.c{stroke:#b2b2b2;stroke-width:5px;}.d{fill:#b2b2b2;font-family:SegoeUI-Semibold, Segoe UI;font-size:69px;font-weight:700;}.c{fill:none;stroke-linecap:round;stroke-linejoin:round;}</style></defs><text class="d" transform="translate(330.46 826.05)"><tspan x="0" y="0">No order yet!</tspan></text><g><g><rect class="b" x="349.75" y="619.82" width="380.51" height="35.18" rx="17.59" ry="17.59"/><path class="c" d="M693.77,619.82c0-84.93-68.84-153.78-153.77-153.78-40.61,0-77.54,15.74-105.03,41.47"/><path class="c" d="M386.23,619.82c0-31.73,9.6-61.19,26.06-85.68"/><path class="c" d="M426.08,516.52c-2.14,2.38-4.22,4.83-6.23,7.34"/><path class="c" d="M587.77,498.53c20.16,7.95,37.86,20.77,51.63,37.03"/><path class="c" d="M654.27,557.14c-1.76-3.2-3.66-6.33-5.68-9.35"/><circle class="b" cx="540" cy="445.52" r="20.52"/><g><g><rect class="c" x="523.31" y="514.43" width="33.37" height="53.7" rx="16.69" ry="16.69"/><circle class="b" cx="540" cy="551.45" r="16.69"/></g><g><rect class="c" x="475.46" y="514.43" width="33.37" height="53.7" rx="16.69" ry="16.69"/><circle class="b" cx="492.14" cy="551.45" r="16.69"/></g><line class="c" x1="475.46" y1="591.15" x2="556.69" y2="591.15"/></g></g><g><path class="c" d="M420.75,524.76l-12.7-12.7h0c-2.47-2.47-6.47-2.47-8.94,0h0l-12.7,12.7c-2.47,2.47-2.47,6.47,0,8.94h0c2.47,2.47,6.47,2.47,8.94,0l8.22-8.22,8.22,8.22c2.47,2.47,6.47,2.47,8.94,0h0c2.47-2.47,2.47-6.47,0-8.94Z"/><path class="c" d="M379.62,483.64l12.7,12.7h0c2.47,2.47,2.47,6.47,0,8.94h0l-12.7,12.7c-2.47,2.47-6.47,2.47-8.94,0h0c-2.47-2.47-2.47-6.47,0-8.94l8.22-8.22-8.22-8.22c-2.47-2.47-2.47-6.47,0-8.94h0c2.47-2.47,6.47-2.47,8.94,0Z"/><path class="c" d="M427.54,517.97l-12.7-12.7h0c-2.47-2.47-2.47-6.47,0-8.94h0l12.7-12.7c2.47-2.47,6.47-2.47,8.94,0h0c2.47,2.47,2.47,6.47,0,8.94l-8.22,8.22,8.22,8.22c2.47,2.47,2.47,6.47,0,8.94h0c-2.47,2.47-6.47,2.47-8.94,0Z"/><path class="c" d="M386.41,476.85l12.7,12.7h0c2.47,2.47,6.47,2.47,8.94,0h0l12.7-12.7c2.47-2.47,2.47-6.47,0-8.94h0c-2.47-2.47-6.47-2.47-8.94,0l-8.22,8.22-8.22-8.22c-2.47-2.47-6.47-2.47-8.94,0h0c-2.47,2.47-2.47,6.47,0,8.94Z"/></g></g></svg>