<?xml version="1.0" encoding="UTF-8"?><svg id="a" xmlns="http://www.w3.org/2000/svg" viewBox="0 0 1080 1080"><defs><style>.b,.c{stroke-miterlimit:10;}.b,.c,.d{stroke:#b2b2b2;stroke-width:5px;}.b,.d{fill:none;}.c{fill:#ededed;}.e{fill:#b2b2b2;font-family:SegoeUI-Semibold, Segoe UI;font-size:69px;font-weight:700;}.d{stroke-linecap:round;stroke-linejoin:round;}</style></defs><text class="e" transform="translate(282.67 826.05)"><tspan x="0" y="0">No result found!</tspan></text><g><g><path class="c" d="M621.88,453.68c-6.12,.86-12.11,3.1-17.15,5.24,21.31,41.94,14.42,94.51-20.66,129.57-43.63,43.64-114.38,43.64-158.01,0-43.64-43.63-43.64-114.38,0-158.01,43.63-43.64,114.38-43.64,158.01,0,5.82,5.82,10.85,12.11,15.11,18.76,3.49-3.92,8-8.13,13.36-11.93-4.59-6.84-9.91-13.31-15.94-19.36-50.54-50.54-132.5-50.54-183.05,0-50.54,50.55-50.54,132.51,0,183.05,48.78,48.77,126.8,50.48,177.63,5.12,1.84-1.65,3.65-3.35,5.43-5.12s3.48-3.59,5.12-5.43c35.41-39.68,42.14-95.94,20.16-141.91Z"/><path class="b" d="M584.07,588.49c-43.63,43.64-114.38,43.64-158.01,0-43.64-43.63-43.64-114.38,0-158.01,43.63-43.64,114.38-43.64,158.01,0,5.82,5.82,10.85,12.11,15.11,18.76-5.87,6.6-8.82,12.37-7.84,13.92,1.01,1.6,6.24-1.21,13.39-4.25,21.31,41.94,14.42,94.51-20.66,129.57Z"/><path class="b" d="M584.07,588.49c-43.63,43.64-114.38,43.64-158.01,0-43.64-43.63-43.64-114.38,0-158.01,43.63-43.64,114.38-43.64,158.01,0,5.82,5.82,10.85,12.11,15.11,18.76-5.87,6.6-8.82,12.37-7.84,13.92,1.01,1.6,6.24-1.21,13.39-4.25,21.31,41.94,14.42,94.51-20.66,129.57Z"/><g><rect class="c" x="601.41" y="639.57" width="103.99" height="36.51" rx="18.25" ry="18.25" transform="translate(656.53 -269.35) rotate(45)"/><line class="b" x1="623.05" y1="616.91" x2="601.71" y2="595.58"/><line class="b" x1="612.49" y1="627.47" x2="591.15" y2="606.13"/></g></g><g><polyline class="d" points="434.14 473.19 484.62 495.93 434.14 518.68"/><polyline class="d" points="575.84 473.19 525.37 495.93 575.84 518.68"/></g><path class="d" d="M465.65,553.7c7.87-4.95,22.59-8.29,39.42-8.29s31.53,3.34,39.41,8.29"/><g><path class="d" d="M704.06,468.17c-2.89,13.43-27.42,24.26-41.93,17.7-13.09-5.93-9.56-22.15-23.08-29.63-5.37-2.97-11.33-3.4-17.17-2.57-6.12,.86-12.11,3.1-17.15,5.24-7.15,3.03-12.38,5.85-13.39,4.25-.97-1.55,1.97-7.32,7.84-13.92,3.49-3.92,8-8.13,13.36-11.93,10.08-7.15,23.09-12.81,37.66-12.24,28.82,1.14,57.45,26.44,53.86,43.09Z"/><path class="d" d="M668.36,476.76c-4.31-.64-9.5-8.34-10.74-14.61"/><path class="d" d="M676.02,477.48c.55,.02,1.09,.04,1.64,.06"/></g></g></svg>