<?xml version="1.0" encoding="UTF-8"?><svg id="a" xmlns="http://www.w3.org/2000/svg" viewBox="0 0 1080 1080"><defs><style>.b,.c,.d,.e,.f{stroke:#b2b2b2;stroke-width:5px;}.b,.c,.d,.f{fill:none;}.b,.c,.e{stroke-miterlimit:10;}.c,.d,.f{stroke-linecap:round;}.d{stroke-dasharray:0 0 12.22 12.22;}.d,.f{stroke-linejoin:round;}.e{fill:#ededed;}.g{fill:#b2b2b2;font-family:SegoeUI-Semibold, Segoe UI;font-size:69px;font-weight:700;}</style></defs><g><path class="b" d="M663.55,365.27v132.55c-1.07-.36-2.21-.56-3.4-.56-5.81,0-10.53,4.72-10.53,10.53,0,2.61,.95,5.01,2.54,6.85,1.92,2.25,4.79,3.68,7.99,3.68,1.19,0,2.32-.2,3.4-.56v52.3c0,14.71-11.92,26.63-26.62,26.63l-268.57,41.98c-14.7,0-26.62-11.92-26.62-26.62v-204.78c0-14.71,11.92-26.63,26.62-26.63l268.57-41.98c14.7,0,26.62,11.92,26.62,26.62Z"/><g><path class="f" d="M662.02,420.66c-1.63-1.19-3.25-2.37-4.84-3.54"/><path class="d" d="M647.35,409.86c-105.97-78.91-123.32-112.38-116.31-127.84,8.48-18.7,57.33-21.6,62.81-9.96,5.94,12.62-34.77,51.59-73.53,64.34-81.1,26.68-172.09-55.33-201.46-84.75"/><path class="f" d="M314.58,247.31c-1.83-1.89-3.22-3.37-4.13-4.35"/></g><path class="b" d="M723.33,476.3c-.39,.47-.82,.93-1.25,1.36-4.21,4.22-10.04,6.83-16.48,6.83h-51.66c-9.99,0-18.51,6.28-21.81,15.11-.96-2.55-1.49-5.31-1.49-8.19,0-5.77,2.1-11.05,5.57-15.11,4.27-5.01,10.63-8.19,17.73-8.19h51.66c6.44,0,12.26,2.61,16.48,6.83,.44,.44,.86,.89,1.25,1.36Z"/><path class="b" d="M723.33,476.3c-.39,.47-.82,.93-1.25,1.36-4.21,4.22-10.04,6.83-16.48,6.83h-51.66c-7.1,0-13.46-3.18-17.73-8.19-3.48-4.07-5.57-9.34-5.57-15.11,0-2.88,.53-5.64,1.49-8.19,3.3,8.83,11.82,15.11,21.81,15.11h51.66c6.44,0,12.26,2.61,16.48,6.83,.44,.44,.86,.89,1.25,1.36Z"/><path class="e" d="M671.23,380.63H368.36c-14.7,0-26.62,11.92-26.62,26.63v204.78c0,14.7,11.92,26.61,26.62,26.61h302.87c14.7,0,26.62-11.91,26.62-26.61v-204.78c0-14.71-11.92-26.63-26.62-26.63Zm-146.32,168.55v13.44h-11.3v-12.92c-10.41-.13-20.99-2.46-27.27-5.69l4.3-8.65c6.28,2.97,15.61,5.55,25.66,5.55,12.74,0,21.35-5.3,21.35-12.66s-7-11.5-20.27-15.38c-18.3-5.16-29.61-11.24-29.61-22.48s10.59-18.86,26.91-20.8v-12.92h11.31v12.53c10.58,.26,17.94,2.33,23.32,4.52l-4.49,8.53c-3.76-1.55-11.12-4.52-22.6-4.52-13.81,0-19.02,5.94-19.02,11.24,0,6.59,6.64,9.95,22.25,14.73,18.48,5.43,27.81,12.02,27.81,23.52,0,10.33-9.87,19.89-28.35,21.96Zm143.17-34.47c-1.2,1.38-2.76,2.45-4.53,3.04-1.07,.37-2.21,.57-3.4,.57-3.19,0-6.06-1.43-7.99-3.68-1.59-1.84-2.54-4.24-2.54-6.85,0-5.81,4.72-10.53,10.53-10.53,1.19,0,2.33,.2,3.4,.56,4.15,1.41,7.13,5.35,7.13,9.97,0,2.65-.98,5.07-2.6,6.92Z"/><path class="e" d="M723.33,476.3c-.39,.47-.82,.93-1.25,1.36-4.21,4.22-10.04,6.83-16.48,6.83h-51.66c-9.99,0-18.51,6.28-21.81,15.11-.96,2.55-1.49,5.31-1.49,8.19,0,6.44,2.61,12.26,6.83,16.48,4.21,4.22,10.04,6.83,16.48,6.83h51.66c12.87,0,23.3-10.43,23.3-23.3v-16.38c0-5.77-2.1-11.05-5.57-15.11Zm-55.26,38.42c-1.2,1.38-2.76,2.44-4.53,3.04-1.07,.36-2.21,.56-3.4,.56-3.2,0-6.06-1.43-7.99-3.68-1.59-1.84-2.54-4.24-2.54-6.85,0-5.81,4.72-10.53,10.53-10.53,1.19,0,2.32,.2,3.4,.56,4.15,1.41,7.14,5.35,7.14,9.97,0,2.65-.98,5.07-2.61,6.93Z"/><g><ellipse class="f" cx="291.31" cy="225.29" rx="12.93" ry="15.53" transform="translate(-73.98 271.98) rotate(-45)"/><path class="e" d="M315.56,200.13c-.47,7.48-10.37,14.14-22.12,14.88-4.61,.29-8.82-.38-12.2-1.75,2.94-3.94,2.45-9.73-1.35-13.53-1.34-1.34-2.91-2.26-4.56-2.78,3.67-4.84,11.24-8.52,19.8-9.05,11.76-.73,20.91,4.74,20.43,12.22Z"/><path class="e" d="M267.13,248.56c7.48-.47,14.14-10.37,14.88-22.12,.29-4.61-.38-8.82-1.75-12.2-3.94,2.94-9.73,2.45-13.53-1.35-1.34-1.34-2.26-2.91-2.78-4.56-4.84,3.67-8.52,11.24-9.05,19.8-.73,11.76,4.74,20.91,12.22,20.43Z"/><ellipse class="f" cx="272.82" cy="206.8" rx="10" ry="10.63" transform="translate(-66.32 253.48) rotate(-45)"/><ellipse class="e" cx="262.28" cy="196.26" rx="10" ry="6.12" transform="translate(-61.96 242.95) rotate(-45)"/><line class="c" x1="257.96" y1="191.93" x2="259.81" y2="181.53"/><line class="c" x1="257.96" y1="191.93" x2="247.56" y2="193.78"/></g></g><text class="g" transform="translate(219.68 826.86)"><tspan x="0" y="0">Let’s fill your wallet</tspan><tspan x="222.82" y="82.8">now!</tspan></text></svg>